<?xml version="1.0" encoding="UTF-8"?>
<svg version="1.1" viewBox="0 0 1600 800" width="1280" height="1280" xmlns="http://www.w3.org/2000/svg">
<path transform="translate(589 65.8)" d="m0 0c1.33 0 2.67 0.01 4 0.01 17.3 0.05 34.6 0.2 51.9 0.55 0.84 0.02 1.69 0.03 2.56 0.05 10.8 0.2 21.5 1 32.3 2.34 2.78 0.34 5.57 0.62 8.36 0.91 13.5 1.47 26.6 3.73 39.8 6.71 2.65 0.59 5.3 1.16 7.96 1.72 1.58 0.34 3.16 0.68 4.74 1.02 0.7 0.15 1.39 0.29 2.1 0.45 5.12 1.12 10 2.7 15 4.43 1.07 0.36 2.13 0.73 3.23 1.11 4.95 1.7 9.9 3.42 14.8 5.13 5.77 1.99 11.6 3.97 17.4 5.89 4.57 1.51 9.07 3.15 13.6 4.87 2.6 0.93 5.2 1.84 7.81 2.75 6.3 2.2 12.6 4.48 18.8 6.81 5.78 2.15 11.6 4.21 17.4 6.13 4.86 1.59 9.61 3.32 14.3 5.27 4.32 1.72 8.72 3.25 13.1 4.79 6.03 2.15 12 4.44 17.9 6.85 10.2 4.15 20.5 8.03 30.9 11.8 6.32 2.31 12.6 4.77 18.8 7.39 4.44 1.85 8.94 3.52 13.4 5.2 6.24 2.35 12.4 4.8 18.4 7.66 4.41 1.93 8.92 3.59 13.4 5.27 6.88 2.58 13.6 5.34 20.2 8.5 11.2 5.15 22.9 9.54 34.6 13.5 4.26 1.45 8.35 3.16 12.5 5.02 2.42 1.09 4.86 2.13 7.3 3.17 8.04 3.41 16 6.82 23.9 10.6 4.84 2.29 9.7 4.37 14.7 6.31 6.19 2.4 12.1 5.25 18 8.27 4.63 2.3 9.36 4.27 14.1 6.27 3.14 1.36 6.18 2.84 9.23 4.39 4.6 2.35 9.26 4.47 14 6.5 6.2 2.67 12.2 5.56 18.2 8.62 4.71 2.38 9.49 4.63 14.3 6.88 8.29 3.93 16.5 7.96 24.7 12.1 1.98 0.99 3.96 1.98 5.94 2.96 7.28 3.6 14.5 7.3 21.6 11.2 3.71 2 7.45 3.93 11.2 5.79 34.8 17.3 68.6 36.9 102 57 3.51 2.11 7.06 4.12 10.7 6.04 11.6 6.25 22.7 13.7 33.6 21.1 0.61 0.41 1.22 0.82 1.86 1.25 7.13 4.81 14.2 9.69 21 15 10.7 8.32 20.9 15.8 34.9 15.9 1.68 0.01 1.68 0.01 3.4 0.02 1.2 0 2.41 0.01 3.65 0.01 2.57 0.03 5.15 0.05 7.72 0.08 4.04 0.03 8.08 0.06 12.1 0.07 3.91 0.02 7.81 0.06 11.7 0.1h3.61c9.74 0.14 20.4 1.58 27.6 8.8 7.54 9.13 7.59 18.9 6.75 30.3-0.95 8.11-4.51 14.5-10.2 20.1-4.96 3.17-10.5 3.56-16.3 3.63-0.69 0.01-1.37 0.02-2.07 0.03-2.24 0.03-4.47 0.04-6.71 0.06l-4.68 0.06c-4.08 0.05-8.17 0.09-12.2 0.13-4.18 0.04-8.36 0.09-12.5 0.14-8.18 0.1-16.4 0.18-24.5 0.26-0.14 0.94-0.28 1.88-0.43 2.85-1.33 7.3-6.67 13-12.6 17.2-5.13 3.13-9.23 3.48-15.1 3.5-0.86 0.01-1.73 0.02-2.63 0.03-1.83 0.02-3.67 0.02-5.5 0.02-2.77 0.01-5.53 0.06-8.29 0.12-15.3 0.15-26.9-3.01-38.5-13.7-1.67-1.67-3.34-3.33-5-5-1.93-1.83-3.86-3.64-5.81-5.44-0.53-0.48-1.05-0.96-1.59-1.46-3.5-3.19-7.11-6.09-11-8.86-2.46-1.85-4.5-4.04-6.65-6.24-2.47-2.27-4.96-4.5-7.46-6.73-1.56-1.39-3.1-2.8-4.62-4.23-6.9-6.41-14.2-10.2-23.6-11.6-2.35-0.34-4.7-0.73-7.04-1.16-14.6-2.62-29.2-3.43-44-4.27l-8.55-0.51c-14.6-0.89-29.2-1.69-43.7-2.34-12.8-0.57-25.6-1.37-38.3-3.02-1.15-0.15-2.29-0.29-3.47-0.43-7.43-1.07-13.6-3.3-20.3-6.76v-2c-0.7-0.24-1.41-0.48-2.13-0.73-3.35-1.48-5.96-3.37-8.87-5.58-1.01-0.76-2.02-1.52-3.07-2.31-2.84-2.31-5.37-4.76-7.93-7.38-1.64-1.52-3.28-3.02-4.94-4.5-0.86-0.78-1.72-1.55-2.61-2.35-1.99-1.75-4.01-3.43-6.08-5.09-0.78-0.68-1.57-1.36-2.37-2.06v-2c-0.54-0.22-1.08-0.43-1.64-0.65-3.21-1.84-5.62-4.34-8.19-6.95l-1.69-1.69c-1.17-1.17-2.34-2.35-3.51-3.53-1.76-1.79-3.54-3.56-5.31-5.33-5.25-5.27-10.4-10.5-15.2-16.2-1.56-1.8-3.22-3.46-4.91-5.12-5.43-5.36-10.2-11.2-15-17.1-7.6-9.29-15.4-15.2-27.5-17.4-3.45-0.28-6.86-0.29-10.3-0.25-0.98 0-1.96 0.01-2.96 0.01-5.8 0.08-11.5 0.41-17.2 1.11-46.3 5.53-107 11.4-152-5.73-5.69-2.16-9.82-2.3-15.8-1.14-0.68 0.12-1.35 0.25-2.04 0.37-1.35 0.26-2.69 0.52-4.03 0.78-31.2 5.98-65-0.84-95.9-5.69-15-2.33-29.8-3.98-45-4.46 0.09 1.34 0.09 1.34 0.19 2.7-0.22 3.77-0.99 5.08-3.26 8.05-0.64 0.86-1.28 1.72-1.94 2.61-0.99 1.31-0.99 1.31-1.99 2.64-1.16 1.62-2.3 3.24-3.44 4.87-0.85 1.22-0.85 1.22-1.73 2.46-2.78 4.05-5.46 8.17-8.13 12.3-1.7 2.37-1.7 2.37-3.7 3.37-5.42 0.4-10.8 0.53-16.3 0.62-1.81 0.04-3.62 0.1-5.43 0.19-15.8 0.7-15.8 0.7-20.8-2.95-3.65-3.54-6.75-6.7-7.55-11.9h-2c-7.38-11.4-10.8-24.4-9-38 1.25-3.95 2.98-7.4 5-11 0.63-1.36 1.25-2.71 1.87-4.07 6.49-12.8 14.9-22.4 28.1-27.9 1.19-0.53 2.39-1.05 3.62-1.59 10.1-4.41 10.1-4.41 12.4-4.41v-2c-1.01-0.4-1.01-0.4-2.04-0.8-3.47-1.41-6.91-2.89-10.3-4.39-0.7-0.31-1.41-0.62-2.13-0.93-4.64-2.04-9.23-4.15-13.8-6.32-5.8-2.74-11.7-5.31-17.6-7.81-0.77-0.33-1.54-0.66-2.34-1-14.6-6.42-14.6-6.42-29.8-4.75-2.18 1.09-4.34 2.23-6.48 3.41-0.9 0.5-0.9 0.5-1.83 1.01-1.27 0.71-2.55 1.41-3.82 2.12-1.9 1.06-3.81 2.12-5.71 3.16-10.7 5.91-21.1 12.2-31.3 18.9-17.8 11.5-17.8 11.5-24.7 11-7.4-1.99-12.8-7.41-16.5-13.8-1.36-5.41-0.57-10.1 2.06-15 2.27-2.78 4.69-5.23 7.25-7.75 1.92-1.9 3.83-3.79 5.75-5.69 0.49-0.49 0.98-0.97 1.49-1.47 3.57-3.28 3.57-3.28 4.85-7.73-0.54-7.86-4.05-12.4-9.78-17.6-4.09-2.76-7.46-3.04-12.3-2.56-5.83 2.46-10.2 6.3-13 12-0.69 2.15-1.33 4.32-1.94 6.5-1.67 5.93-3.62 9.25-8.06 13.5-4.23 2.11-8.94 1.3-13.3 0.06-8.47-4.1-16.7-11.9-22.7-19.1v-2c-0.99-0.33-1.98-0.66-3-1-4.73-5.87-7.47-12.4-7.26-20 1.21-9.55 8.42-15.2 15.3-21 1.4-1.21 2.79-2.42 4.19-3.63 0.91-0.79 0.91-0.79 1.85-1.6 1.49-1.34 2.91-2.75 4.31-4.19 2.77-2.7 5.7-4.98 8.77-7.33 5.28-4.22 7.47-7.71 8.88-14.2 2.17-4.55 5.01-7.03 9-10h2v-2c17.3-9.94 35.7-15.4 55-20 1.06-0.27 2.13-0.54 3.22-0.81 27-6.59 54.4-7.53 82.1-7.38zm-29.6 16.6c-0.75 0.04-1.5 0.08-2.28 0.12-8.03 0.46-16 1.56-23.9 2.75-0.76 0.11-1.51 0.22-2.29 0.34-39.3 4.94-39.3 4.94-73.2 23.4-0.71 1.65-1.39 3.31-2 5 8.83 0.27 16.2-0.29 24.5-3.25 14.4-5.05 27-4.56 41.9-1.82 10.2 1.87 10.2 1.87 19.8-1.45 3.03-2.5 5.45-5.5 7.9-8.56 2.48-2.51 4.44-2.84 7.91-3.04 0.69 0.01 1.38 0.01 2.1 0.02 0.75 0 1.51 0.01 2.28 0.01 0.78 0.01 1.56 0.02 2.36 0.02 0.79 0.01 1.58 0.01 2.4 0.02 1.95 0.01 3.9 0.03 5.85 0.05-0.39 1.93-0.39 1.93-1 4-1.82 1.12-1.82 1.12-4.13 2-10.3 4.19-15 8.7-19.6 18.9-1.24 2.11-1.24 2.11-4.24 3.11-6.94-0.04-13.7-0.79-20.4-2.5-10.9-2.7-22-4.02-32.6 0.5 1.4 4.47 3.63 6.8 7 10 2.88 3.19 3.51 5.73 4 10-1.34-0.27-2.67-0.54-4-0.81-0.75-0.16-1.49-0.31-2.25-0.46-2.75-0.73-2.75-0.73-6.36-2.26-4.57-1.73-8.65-1.84-13.5-1.73-0.85 0.01-1.7 0.01-2.57 0.02-2.69 0.02-5.38 0.07-8.07 0.11-3.54 0.05-7.08 0.09-10.6 0.12-1.27 0.02-1.27 0.02-2.57 0.03-4.73 0.05-9.28-0.19-14-0.76-3.76-0.37-4.9-0.35-8.45 1.26-4.71 4.75-7.14 8.21-7.32 14.9 0.08 3.21 0.32 6.37 0.68 9.57h-2l-4 8c1.22 1.61 2.45 3.21 3.69 4.81 0.68 0.89 1.36 1.79 2.07 2.71 2.27 2.51 4.21 3.99 7.24 5.48 2.61 0.24 2.61 0.24 5-1 3.08-3.43 4.11-5.83 4.12-10.3 0.32-4.56 2.13-6.44 5.44-9.5 8.51-6.94 15.7-9.54 26.7-9.13 5.74 0.59 10.2 2.82 15.2 5.56 2.54 1.48 2.54 1.48 5.53 2.38 0.71 1.31 1.37 2.64 2 4 0.98 1.22 1.98 2.43 3 3.62 5.52 7.34 5.46 15.5 4.62 24.4-0.91 4.36-2.73 6.66-5.62 10v2c-1.49 0.49-1.49 0.49-3 1-1.52 1.49-1.52 1.49-2.94 3.31-2.24 2.71-4.53 5.25-7.06 7.69l2 4c6.35-0.34 10.8-3.64 16-7 0.94-0.6 1.88-1.21 2.85-1.83 10.8-7.02 22.3-14.8 31.2-24.2v-2h2c5.18-5.45 8.58-12.4 12-19 0.52-0.99 1.03-1.97 1.57-2.99 2.53-4.91 4.74-9.71 6.49-15 1.79-5.16 4.06-8.34 8.83-11.2 2.4-0.99 3.79-1.03 6.36-0.75 0.7 0.07 1.41 0.13 2.14 0.2 6.05 1.57 11.5 5.15 17 8.13 7.93 4.29 16 8.17 24.3 11.7 0.9 0.39 1.8 0.78 2.73 1.18 10.7 4.39 19 2.81 29.6-1.3 6.25-2.87 11.3-6.15 16.4-10.8 2.76-2.01 5.29-2.06 8.64-2.19-1.14 4.93-2.24 7.62-6 11v2c-0.56 0.2-1.12 0.41-1.69 0.62-2.56 1.52-4 3.36-5.84 5.67-2.83 3.28-6.11 6-9.47 8.71-0.61 0.51-1.21 1.02-1.84 1.55-4.87 3.64-9.4 4.3-15.4 4.06-6.88-1.13-13.1-3.93-19.5-6.67-3.46-1.45-6.98-2.72-10.5-4.01-4.57-1.67-9.02-3.47-13.4-5.49-5.75-2.6-10-4.2-16.3-3.44-2.25 4.33-4.38 8.7-6.31 13.2-0.35 0.79-0.7 1.59-1.06 2.41-0.74 2.82-0.4 4.62 0.37 7.4 0.93 0.29 0.93 0.29 1.88 0.59 8.74 2.83 17.3 6.1 25.9 9.4 3.2 1.23 6.41 2.43 9.64 3.58 8.19 2.92 15.8 6.39 23.4 10.6 2.48 1.37 4.96 2.66 7.52 3.87 5.95 2.93 11.7 6.58 17 10.6 1.7 1.48 1.7 1.48 3.8 1.29v2c3.05 2.03 3.69 2.25 7.12 2.26 1.19 0.01 1.19 0.01 2.39 0.01 0.82-0.01 1.64-0.01 2.49-0.02 0.82 0.01 1.64 0.01 2.48 0.02 0.79 0 1.58 0 2.39-0.01h2.18c2.27-0.16 2.27-0.16 4.95-2.26-0.59-0.82-1.17-1.65-1.77-2.49-2.46-3.69-4.19-7.58-5.92-11.6-0.31-0.7-0.61-1.4-0.93-2.13-3.83-8.87-5.43-18-2.1-27.4 1.75-3.58 3.65-6.99 5.72-10.4 0.52-0.86 0.52-0.86 1.05-1.73 6.55-10.6 6.55-10.6 11-13.3h3c1.66 6.08 0.2 10.2-1.99 16-4.85 14.2-1.29 26.2 5.07 39.2 1.39 2.81 2.81 5.6 4.25 8.39 1.67 3.34 1.67 3.34 2.67 6.34 2.88 1.44 5.67 1.47 8.87 1.81 13.6 1.59 26.9 4.55 40.1 7.81 0.84 0.21 1.68 0.41 2.55 0.63 0.79 0.2 1.57 0.39 2.38 0.6 0.69 0.17 1.38 0.35 2.09 0.52 2.18 0.69 4.03 1.43 5.98 2.63l1 3c-0.83-0.04-0.83-0.04-1.68-0.08-12.4-0.55-24.8-1.03-37.2-1.42-1.4-0.04-2.8-0.09-4.2-0.13-54.8-3.37-54.8-3.37-104 15.2-8.16 7.91-15.3 18.9-15.9 30.6 1.11 9.82 5.02 19.2 12.4 25.9l2 2c7.45 1.34 18.4 2.48 24.8-1.92 1.76-2.62 2.97-5.18 4.2-8.08 1.14-1.65 2.3-3.27 3.5-4.88 2.15-2.84 2.15-2.84 2.22-6.24-0.72-1.97-0.72-1.97-1.85-4.07-1.26-4.06-0.54-7.67 0.13-11.8 25.4-5.6 56.6 1.04 82 5 21.4 3.34 43.1 5.82 64.8 5.07 1.94-0.06 3.87-0.07 5.8-0.07 5.03-0.31 7.47-1.11 11.1-4.68 2.71-3.25 5-6.75 7.27-10.3 0.58-0.87 1.17-1.73 1.77-2.63 1.56-2.4 2.92-4.83 4.23-7.37 0.53-1.02 1.06-2.04 1.61-3.09 2.7-5.87 4-9.87 2.01-16.2-0.81-1.95-1.69-3.86-2.62-5.75-0.39-0.79-0.79-1.59-1.19-2.4-1.2-2.25-2.48-4.43-3.81-6.6-0.98-1.63-1.96-3.25-2.94-4.88-0.76-1.24-0.76-1.24-1.53-2.52-1.58-2.69-3.06-5.41-4.53-8.17-1.82-3.37-3.71-6.59-5.88-9.74-8.67-12.8-16.4-25.7-16.8-41.5-0.02-0.79-0.04-1.58-0.07-2.39 0.08-6.05 1.95-10.1 5.7-14.8 4.29-3.8 9.5-3.69 15-4-1.19 4.87-3.21 7.71-6.57 11.3-2.11 2.51-3.39 4.53-3.51 7.86 0.08 0.73 0.17 1.47 0.27 2.22 0.07 0.73 0.15 1.46 0.23 2.21 1.31 5.48 4.56 10.1 7.58 14.8 0.38 0.59 0.76 1.18 1.15 1.79 3.67 5.63 7.47 11.2 11.3 16.7 3.45 4.97 3.45 4.97 4.55 7.16h2c0.4 1.36 0.4 1.36 0.81 2.75 1.12 3.06 2.25 4.7 4.19 7.25 3.62 6.05 6.73 12.4 9.75 18.8 0.44 0.92 0.44 0.92 0.89 1.86 1.9 4.07 3.22 8.05 4.36 12.4 15.7 2.63 31.3 4.61 47.2 5.78 4.27 0.34 8.52 0.81 12.8 1.28 11.3 1.21 22.6 1.58 34 1.94v5c-3.69 0.66-7.38 1.3-11.1 1.93-1.01 0.19-2.03 0.37-3.08 0.56-13.9 2.38-27.8 2.71-41.9 2.7h-2.29c-12.6 0-25.1-0.66-37.6-2.19-1.27 2.06-2.54 4.12-3.81 6.19-0.36 0.57-0.72 1.15-1.09 1.75-1.03 1.68-2.07 3.37-3.1 5.06-0.87 1.35-0.87 1.35-1.76 2.74-1.48 2.27-1.48 2.27-1.24 5.26 1.74 0.78 3.49 1.55 5.25 2.31 0.97 0.43 1.95 0.86 2.95 1.3 10.1 3.92 20.5 5.09 31.2 6.01 1.33 0.12 2.66 0.25 3.99 0.37 2.63 0.24 5.25 0.47 7.88 0.69 2.26 0.2 4.53 0.4 6.79 0.63 20.9 1.93 41.8 0.27 62.7-1.11 2.92-0.19 5.84-0.37 8.76-0.56 2.84-0.17 5.68-0.36 8.52-0.54 1.99-0.13 3.97-0.25 5.96-0.38 7.01-0.44 7.01-0.44 14-1.27 15.2-2.3 34.9-2.85 48.2 6.05 4.88 4.14 9.07 9.06 13.3 13.8 2.54 2.83 5.14 5.62 7.74 8.41 3.24 3.5 6.44 7.01 9.56 10.6 2.67 3.1 5.51 5.97 8.42 8.83 2.52 2.56 4.85 5.27 7.19 8 1.48 1.68 2.91 3.31 4.58 4.8h2c0.2 0.55 0.41 1.11 0.62 1.69 1.89 3.17 4.53 4.98 7.38 7.31 1 1.33 2.01 2.66 3 4h2l2 4h2c0.22 0.55 0.45 1.11 0.69 1.69 1.68 2.97 3.77 5.03 6.31 7.31h2c0.25 0.58 0.5 1.17 0.76 1.77 1.4 2.52 2.92 3.98 5.11 5.85 0.68 0.59 1.36 1.18 2.06 1.79 1.95 1.5 3.83 2.57 6.07 3.59v2c18.3 14.4 41.5 14.8 63.7 15.4 15.6 0.47 31.2 1.3 46.7 2.23 3.74 0.22 7.47 0.44 11.2 0.65 2.95 0.17 5.91 0.34 8.86 0.52 2.03 0.12 4.06 0.23 6.09 0.35 49.3 2.99 49.3 2.99 64 18.5 1.33 1.55 1.33 1.55 3.41 1.32v2h2v2h2v2h2v2c1.58 1.64 1.58 1.64 3.62 3.31 0.73 0.62 1.46 1.25 2.22 1.89 1.77 1.48 3.56 2.95 5.35 4.42 2.81 2.38 2.81 2.38 5.1 4.69 8.05 7.98 17.2 15.6 26.7 21.7 1.64 1.08 1.64 1.08 3.32 2.18 5.81 2.82 12.2 2.49 18.6 2.45 2.17-0.01 4.34 0.04 6.51 0.09 8.55 0.21 8.55 0.21 16-3.5 3.08-3.21 4.5-6.98 5.62-11.2 0.18-0.68 0.36-1.35 0.55-2.04 1.34-5.86 0.31-10-2.38-15.2-3.22-4.95-7.69-6.97-13.2-8.79-3.43-0.58-6.84-0.77-10.3-0.94-18.2-1.3-29.6-9.77-42.1-22.5-4.45-4.51-8.96-8.86-13.8-13-1.82-1.6-3.51-3.29-5.2-5.04-2.25-2.8-2.25-2.8-4.62-2.56l-1-3c-1.49-1.55-1.49-1.55-3.38-3.07-2.49-2.09-4.9-4.2-7.25-6.47-1.36-1.31-1.36-1.31-2.75-2.65-1.25-1.23-1.25-1.23-2.52-2.48-9.69-7.29-19.7-6.93-31.4-6.96-30.8-0.21-30.8-0.21-41.8-7.37-1.08-0.52-1.08-0.52-2.19-1.05-2.38-1.25-2.65-2.55-3.81-4.95-0.76-0.76-1.52-1.51-2.3-2.29-6.73-6.75-11.9-14.9-16.9-23-3.02-4.73-6.15-9.47-9.76-13.8h-2c-0.23-0.56-0.46-1.12-0.69-1.69-1.69-2.97-3.78-5.03-6.31-7.31h-2l-1-3c-1.36-1.36-1.36-1.36-3.06-2.6-0.61-0.47-1.23-0.94-1.86-1.43-0.65-0.49-1.29-0.97-1.96-1.47-1.27-0.97-2.54-1.94-3.8-2.91-0.57-0.42-1.13-0.85-1.71-1.29-3.15-2.55-4.91-4.22-5.61-8.3 4.84 1.32 8.37 3.46 12.2 6.56 0.56 0.44 1.12 0.89 1.71 1.34 4.41 3.51 8.64 7.21 12.8 11 2.01 1.84 4.06 3.62 6.13 5.38 10.1 8.83 18.9 18.6 27 29.2 5.54 6.81 11.8 11.8 20.8 12.9 7.67 0.51 15.4 0.42 23 0.36 3.46-0.02 6.92-0.02 10.4 0 2.14 0 4.29-0.01 6.43-0.03 13.3 0 22 5.26 31.5 14.3 1.66 2 3.33 4 5 6 1.92 1.76 3.9 3.45 5.89 5.15 2.13 1.87 4.12 3.83 6.11 5.85 6.44 6.86 6.44 6.86 14.2 12 1.83 0.99 1.83 0.99 2.83 3.99 3.48 3.64 3.48 3.64 8 5 0.23 0.57 0.47 1.15 0.71 1.75 3.92 6.86 12.8 12.2 20.3 14.2 3.92 0.73 7.88 1.29 11.8 1.86 10.7 1.59 19.8 3.75 27.2 12.1 2.97 4.18 4.29 7.79 5.6 12.7 0.27 0.99 0.53 1.98 0.8 2.99 0.2 0.75 0.39 1.5 0.6 2.28 8.26 0.09 16.5 0.16 24.8 0.2 3.84 0.03 7.67 0.05 11.5 0.1 3.7 0.04 7.4 0.07 11.1 0.08 1.41 0 2.83 0.02 4.24 0.04 1.98 0.03 3.96 0.03 5.93 0.03 1.13 0.01 2.26 0.02 3.42 0.03 3.72-0.59 5.35-1.88 8.03-4.48 3.05-5.22 4.98-11 4-17-1.73-4.37-3.39-7.9-7.33-10.6-5.36-2.04-10.4-1.82-16.1-1.81-1.2-0.01-2.41-0.02-3.65-0.03-3.85-0.04-7.71-0.05-11.6-0.06-5.05-0.02-10.1-0.05-15.2-0.1-1.15 0.01-2.29 0.01-3.47 0.01-15.9-0.14-34.5-5.39-46.2-16.8-0.84-0.86-1.68-1.72-2.55-2.6-2.14-1.83-4.34-3.54-6.57-5.25-0.56-0.45-1.12-0.89-1.7-1.35-2.91-2.25-5.19-3.57-8.73-4.4l-1-3c-1.98-1.68-1.98-1.68-4.38-3.19-0.79-0.53-1.58-1.06-2.4-1.61-2.24-1.44-2.24-1.44-5.22-1.2v-2c-2.33-1.68-2.33-1.68-5.38-3.44-1.19-0.72-2.39-1.43-3.58-2.15-0.65-0.39-1.3-0.78-1.97-1.17-3.71-2.22-7.39-4.49-11.1-6.74-2.17-1.32-4.34-2.65-6.5-3.97-1.84-1.13-3.67-2.26-5.5-3.4-7.55-4.7-15.2-9.11-23-13.4-2.37-1.31-4.73-2.61-7.1-3.92-0.87-0.49-0.87-0.49-1.77-0.98-5.57-3.09-11.1-6.24-16.6-9.42-5.85-3.35-11.7-6.68-17.6-9.88-2.38-1.29-4.74-2.6-7.1-3.92-7.48-4.19-15-8.31-22.7-12.1-3.82-1.91-7.58-3.92-11.4-5.93-12.4-6.59-24.9-12.8-37.7-18.6-4.08-1.89-8.15-3.81-12.2-5.72-0.8-0.38-1.61-0.76-2.44-1.14-3.95-1.87-7.72-3.81-11.4-6.11-7.08-3.77-14.4-7.08-21.6-10.5-5.03-2.38-10-4.81-15-7.31-17.2-8.65-34.6-16.8-52-24.8-4.2-1.91-8.37-3.85-12.5-5.82-8.66-4.06-17.4-7.93-26.1-11.8-5.84-2.61-11.7-5.24-17.5-7.94-5.34-2.48-10.7-4.73-16.2-6.85-5.54-2.14-11-4.42-16.3-6.94-6.38-2.97-12.9-5.59-19.4-8.13-1.82-0.7-3.64-1.41-5.46-2.12-1.27-0.49-2.54-0.99-3.82-1.49-6.99-2.71-14-5.47-21-8.23-23.7-9.37-23.7-9.37-47.6-18.4-3.36-1.26-6.72-2.52-10.1-3.79-10.7-4.03-21.3-7.98-32.1-11.7-0.77-0.26-1.53-0.52-2.32-0.79-0.66-0.23-1.33-0.45-2.01-0.69-1.91-0.72-1.91-0.72-3.72-1.69-2.97-1.4-6.02-2.16-9.19-3.03-10.1-3.09-20.2-6.35-30.2-9.62-32.1-10.5-32.1-10.5-64.8-19.4-1.1-0.27-2.19-0.54-3.31-0.81-21.2-5.13-42.4-9.8-64-12.9-0.8-0.12-1.59-0.23-2.41-0.35-13.7-1.88-27.2-2.05-41-2.04h-5.99c-4.18 0-8.35 0-12.5 0.01-5.29 0-10.6 0-15.9-0.01h-12.4-5.84c-9.66-0.01-19.3 0.08-28.9 0.58z" fill="#000100"/>
<path transform="translate(1172 450)" d="m0 0h2.66c0.92-0 1.83-0.01 2.78-0.01 3.06-0.01 6.12-0.01 9.18-0.01 2.12 0 4.25-0.01 6.37-0.01 4.47-0.01 8.93-0.01 13.4-0.01 5.71 0 11.4-0.01 17.1-0.03 4.4-0.01 8.8-0.01 13.2-0.01 2.1 0 4.2-0.01 6.3-0.02 20.9-0.07 20.9-0.07 29.9 2.25 1.56 0.33 1.56 0.33 3.16 0.67 6.23 1.62 11.4 3.83 16.8 7.33 0.91 0.57 1.82 1.15 2.75 1.75 9.26 6.25 14.8 14.1 19.2 24.2 0.8 1.73 0.8 1.73 1.62 3.5 5.4 15.2 6.28 39.3 0.26 54.3-4.97 9.97-13.2 19.6-22.9 25.2h-2v2c-0.93 0.09-0.93 0.09-1.88 0.18-2.31 0.64-2.31 0.64-3.44 2.94-1.84 7.72 1.92 13.5 5.63 20 0.54 0.97 1.07 1.93 1.63 2.92 1.67 3 3.36 5.98 5.06 8.96 0.5 0.89 1.01 1.78 1.53 2.7 2.45 4.32 4.91 8.62 7.39 12.9 2.15 3.74 4.27 7.5 6.37 11.3 13.6 24.7 13.6 24.7 31.7 46.1 1 1 1 1 1.37 3.37-0.37 2.63-0.37 2.63-2.22 4.27-4.66 2-9.02 1.79-14 1.76h-3.18c-2.22 0.01-4.44 0-6.65-0.01-3.4-0.02-6.8 0-10.2 0.02-2.16-0.01-4.31-0.01-6.47-0.01-1.02 0-2.03 0.01-3.08 0.01-0.95-0.01-1.89-0.02-2.87-0.03h-2.52c-2.65-0.47-3.48-1.31-5.14-3.38-0.94-1.44-1.83-2.91-2.68-4.4-0.49-0.86-0.99-1.73-1.5-2.62-0.78-1.38-0.78-1.38-1.57-2.8-0.54-0.94-1.08-1.89-1.64-2.87-3.5-6.2-6.73-12.5-9.84-18.9-2.48-4.83-5.28-9.46-8.07-14.1-3.37-5.67-6.37-11.4-9.23-17.4-1.37-2.75-2.86-5.34-4.47-7.95-20.1-33.4-20.1-33.4-20.4-39.4-0.05-0.77-0.1-1.54-0.15-2.33 0.53-2.29 0.53-2.29 2.59-4.46 3.4-2.13 6.34-2.9 10.2-3.77 8.48-2.05 15.1-5.2 20.7-12.1 9.52-16.6 10-38.9 5.21-57-2.58-8.14-6.7-14.5-14.4-18.5-6.19-2.81-12-2.78-18.8-2.81-0.99-0.02-1.98-0.04-3-0.07-3.93-0.02-7.35 0.11-11.1 1.21-6.17 6.73-4.22 19.5-4.21 28.1 0 1.6-0.01 3.2-0.01 4.8-0.02 4.31-0.02 8.63-0.02 13v10.9c-0.02 8.55-0.02 17.1-0.01 25.7 0.01 8.78-0.01 17.6-0.03 26.3-0.02 7.57-0.02 15.2-0.02 22.7 0 4.51 0 9.01-0.01 13.5-0.02 4.25-0.01 8.5 0 12.8 0 1.54 0 3.08-0.01 4.63-0.07 13.6 1.02 27.2 5.89 39.9 0.85 3.14 0.23 5.71-0.5 8.84-3.48 1.56-6.17 2.24-9.98 2.22h-2.91c-1.02-0.01-2.05-0.02-3.1-0.03-1.06 0-2.12 0-3.21-0.01-3.37-0.01-6.74-0.03-10.1-0.06l-6.87-0.03c-5.6-0.02-11.2-0.05-16.8-0.09-0.01-1.13-0.01-2.25-0.01-3.41-0.04-27.4-0.1-54.8-0.18-82.1-0.04-13.2-0.07-26.5-0.09-39.7-0.01-11.6-0.04-23.1-0.08-34.6-0.02-6.1-0.04-12.2-0.04-18.3 0-5.76-0.01-11.5-0.05-17.3 0-2.11-0.01-4.22 0-6.33 0.35-13.6 0.35-13.6-3.62-26.4-1.48-2.9-1.73-5.6-1.93-8.83 1.87-1.88 4.59-1.14 7.09-1.15z" fill="#000100"/>
<path transform="translate(183 725)" d="m0 0c0.89 0 1.78 0.01 2.7 0.01 1.41 0 1.41 0 2.85-0.01 3.2 0 6.41 0 9.61 0.01h6.93c5.74-0.01 11.5-0.01 17.2 0h20.7 38.8c13.1 0.01 26.2 0.01 39.3 0.01h2.5 12.6c30.5 0 61 0 91.5 0.01 30.2 0 60.5 0.01 90.7 0.01h2.84 25.7 63.9 2.94c47.2 0 94.4 0.01 142 0.02h49.2 3.08c47.2 0.01 94.5 0.01 142 0.02h9.19 60.9c40.4 0 80.8 0.01 121 0.01h5.77c86.7 0.01 173 0.02 260 0.03h2.46c40.6 0 81.2 0.01 122 0.01v16h-1355c0-16.1 0-16.1 7.11-16.1z" fill="#000100"/>
<path transform="translate(593,448)" d="m0 0c1.48 0.2 2.97 0.4 4.45 0.59 12 1.61 24.7 3.96 35.6 9.41v34c-11-3.31-11-3.31-15.6-5.88-21-10.8-48.3-15.1-71.4-9.62-22.6 7.28-39.8 21.7-51 42.6-6.79 13.5-10.5 29.9-11 44.9-0.04 1.13-0.08 2.27-0.12 3.44-0.42 23.5 3.87 53 20.6 71.1 0.51 0.48 1.03 0.95 1.56 1.44 1.08 1.36 1.08 1.36 2.19 2.75 10.5 12.6 26.2 22 42.7 23.5 3.22 0.18 6.43 0.26 9.65 0.29 1.51 0.02 1.51 0.02 3.04 0.05 6.07-0.08 11.5-1.01 17.3-2.65 0.68-0.18 1.37-0.37 2.08-0.57 1.67-0.46 3.35-0.92 5.02-1.39 0.12-8.92 0.21-17.8 0.26-26.8 0.03-4.14 0.06-8.28 0.12-12.4 0.05-4 0.08-8.01 0.09-12 0.01-1.52 0.03-3.04 0.06-4.56 0.15-8.7-0.39-15.7-4.55-23.6-0.98-2.63-0.98-2.63 0.02-8.63h52c0.2 25.3 0.2 25.3 0.24 36.1 0.03 7.36 0.07 14.7 0.14 22.1 0.05 5.94 0.08 11.9 0.09 17.8 0.01 2.27 0.03 4.54 0.06 6.8 0.03 3.17 0.04 6.34 0.04 9.51 0.02 1.41 0.02 1.41 0.05 2.85-0.02 2.39-0.07 4.53-0.62 6.85-2.45 2.14-3.75 3-7 3v2c-19.8 8.87-40.4 12.1-62 13-0.89 0.05-1.79 0.11-2.71 0.16-35.6 1.17-72-11.6-98.1-35.9-3.77-3.84-7.05-7.93-10.2-12.3-0.66-0.87-1.31-1.74-1.99-2.63-20.6-28.8-24.3-68.9-18.8-103 0.51-2.78 1.11-5.5 1.75-8.25 0.38-1.72 0.38-1.72 0.77-3.46 6.2-23.4 23.9-43.8 43.2-57.5 0.85-0.61 1.7-1.23 2.57-1.86 13.6-9.29 29.5-15.2 45.4-19.1 1.81-0.46 1.81-0.46 3.66-0.93 19.6-4.72 40.6-4.54 60.3-1.07z" fill="#000100"/>
<path transform="translate(288,450)" d="m0 0h25c1.05 2.58 2.1 5.16 3.19 7.81 2 4.88 4.01 9.73 6.25 14.5 4.28 9.25 7.86 18.8 11.6 28.3 1.85 4.65 3.76 9.23 5.91 13.8 3.7 7.93 7.03 16 10.2 24.1 2.13 5.39 4.34 10.7 6.82 15.9 2.58 5.48 4.77 11 6.82 16.7 1.2 3.31 2.48 6.54 3.93 9.75 1.93 4.3 3.74 8.64 5.53 13 0.29 0.72 0.59 1.44 0.89 2.18 1.23 3.01 2.46 6.02 3.69 9.03 3.22 7.87 6.47 15.7 10 23.4 1.43 3.19 2.68 6.45 3.93 9.72 7.76 21.7 7.76 21.7 23.2 37.7 0.41 2.07 0.41 2.07 0.62 4.56 0.12 1.24 0.12 1.24 0.23 2.51 0.05 0.63 0.1 1.27 0.15 1.93-4.89 4-10 3.38-16 3.29-1.06 0-2.11-0.01-3.21-0.01-3.37-0.02-6.74-0.05-10.1-0.09-2.29-0.02-4.58-0.03-6.87-0.04-5.61-0.04-11.2-0.09-16.8-0.15-4.44-8.69-8.78-17.3-12.2-26.4-1.79-4.61-3.57-9.21-5.61-13.7-2.89-6.54-5.49-13.2-8.14-19.8-29.4-0.33-58.7-0.66-89-1l-1 4c-0.87 2.26-1.77 4.51-2.69 6.75-2.14 5.28-4.21 10.6-6.19 15.9-2.35 6.34-4.8 12.6-7.31 18.9-0.33 0.85-0.66 1.69-1.01 2.55-0.32 0.81-0.64 1.61-0.97 2.43-0.28 0.71-0.56 1.41-0.85 2.14-1.22 2.81-2.59 5.53-3.98 8.26-4.18 0.02-8.36 0.04-12.5 0.05-1.42 0.01-2.84 0.02-4.27 0.03-2.04 0.01-4.09 0.01-6.14 0.02-1.23 0-2.46 0.01-3.73 0.01-2.91-0.1-5.49-0.43-8.32-1.11-0.35-4.84 0.36-7.23 3.12-11.2 3-4.46 5.7-8.95 8.22-13.7 1.23-2.3 2.48-4.57 3.75-6.84 5.69-10.2 9.93-20.7 14-31.7 1.46-3.89 3.04-7.71 4.64-11.5 3.35-8.04 6.49-16.2 9.55-24.3 1.89-4.98 3.8-9.89 6.07-14.7 2.41-5.18 4.43-10.5 6.44-15.8 2.89-7.69 5.89-15.3 9-22.9 0.36-0.89 0.73-1.78 1.1-2.7 1.67-4.04 3.37-8.06 5.17-12 2.19-4.88 4.05-9.87 5.92-14.9 2.44-6.48 4.97-12.8 7.93-19.1 1.73-3.82 3.18-7.74 4.66-11.7 3.04-8 6.29-15.9 9.47-23.8zm3 70c-4.95 12.3-9.85 24.7-14.7 37-2.2 5.64-4.42 11.3-6.66 16.9-1.03 2.58-2.06 5.17-3.08 7.76-0.73 1.84-1.47 3.68-2.21 5.51-0.44 1.11-0.88 2.22-1.33 3.37-0.59 1.47-0.59 1.47-1.18 2.96-1 2.51-1 2.51-0.84 5.47h63c-0.69-4.15-1.2-6.93-2.71-10.6-0.34-0.85-0.68-1.69-1.03-2.56-0.35-0.86-0.71-1.72-1.07-2.61-0.52-1.28-0.52-1.28-1.04-2.58-1.65-4.05-3.34-8.08-5.13-12.1-2.29-5.08-4.37-10.2-6.46-15.4-2.7-6.66-5.45-13.3-8.51-19.8-1.54-3.42-2.85-6.93-4.16-10.4-0.74-2.08-0.74-2.08-2.89-2.9z" fill="#000100"/>
<path transform="translate(1e3 450)" d="m0 0c1 0.01 2 0.01 3.03 0.02 1.08 0 2.16 0 3.27 0.01 1.71 0.01 1.71 0.01 3.45 0.02 1.71 0.01 1.71 0.01 3.45 0.01 2.83 0.02 5.66 0.03 8.48 0.05 2.51 4.86 4.77 9.72 6.75 14.8 2.37 6.03 4.85 12 7.38 18 4.08 9.65 4.08 9.65 6 14.5 3.05 7.73 6.38 15.4 9.78 22.9 2.3 5.16 4.42 10.4 6.53 15.6 3.42 8.44 3.42 8.44 7.13 16.8 2.76 5.91 5.09 12 7.49 18 1.72 4.32 3.47 8.61 5.44 12.8 4.3 9.2 7.83 18.7 11.6 28.2 0.35 0.87 0.69 1.74 1.05 2.64 0.31 0.78 0.62 1.56 0.94 2.37 1 2.43 2.09 4.81 3.2 7.19 1.64 3.53 3.14 7.08 4.53 10.7 4.26 11.1 9.1 21.3 15.2 31.4 0.78 1.38 0.78 1.38 1.57 2.78 1.37 2.13 2.56 3.4 4.56 4.91 2.87 2.31 2.87 2.31 3.87 4.31 0.14 2.68 0.05 5.33 0 8-3.47 1.57-6.17 2.25-9.97 2.23h-2.91c-1.54-0.02-1.54-0.02-3.1-0.03-1.06 0-2.12-0.01-3.21-0.01-3.37-0.01-6.75-0.04-10.1-0.06l-6.87-0.03c-5.6-0.02-11.2-0.05-16.8-0.1-3.08-6.71-6.08-13.4-8.93-20.2-0.35-0.81-0.69-1.62-1.04-2.46-2.11-5.03-4.15-10.1-6.15-15.2-2.36-5.97-4.97-11.7-7.78-17.5-1.1-2.61-1.1-2.61-1.1-5.61-44 0.5-44 0.5-89 1-4.54 10.8-8.78 21.1-12.6 32-1.72 4.87-3.89 9.48-6.12 14.1-1.15 2.45-2.15 4.89-3.07 7.44-1.25 3.37-1.25 3.37-3.25 6.37-2.9 0.38-2.9 0.38-6.58 0.37h-1.97c-1.38 0-2.76-0.01-4.14-0.03-2.1-0.02-4.2-0.02-6.3-0.01-11.2-0.05-11.2-0.05-16-2.33 0.28-5.42 2.56-8.67 5.63-13 1.54-2.09 1.54-2.09 2.37-5.05h2c0.27-1.05 0.54-2.1 0.82-3.18 1.08-3.49 2.29-5.75 4.18-8.82 6.49-11.8 11.3-24.1 16.1-36.6 2.8-7.26 5.73-14.5 8.69-21.7 3.4-8.29 6.71-16.6 9.77-25 1.59-4.2 3.31-8.33 5.05-12.5 2.32-5.56 4.59-11.1 6.86-16.7 0.46-1.13 0.92-2.25 1.4-3.41 2.75-6.75 5.42-13.5 8.01-20.4 0.96-2.47 1.99-4.89 3.09-7.31 1.63-3.57 3.05-7.2 4.44-10.9 1.5-3.95 3.07-7.81 4.88-11.6 2.91-6.27 5.29-12.7 7.73-19.2 7.82-20.7 7.82-20.7 11.3-20.9zm-0.32 71.1c-1.39 3.57-2.79 7.13-4.18 10.7-0.42 1.06-0.83 2.11-1.26 3.2-2.12 5.43-4.23 10.9-6.31 16.3-1.44 3.78-2.95 7.53-4.52 11.3-2.94 7.03-5.79 14.1-8.6 21.2-0.26 0.63-0.51 1.27-0.78 1.92-0.74 1.85-1.48 3.7-2.21 5.56-0.44 1.08-0.87 2.17-1.32 3.29-1.13 2.55-1.13 2.55 0.18 4.6h63c-2.01-6.02-4.06-12-6.37-17.9-0.31-0.79-0.62-1.58-0.94-2.4-1.94-4.96-4.05-9.8-6.31-14.6-1.92-4.32-3.64-8.71-5.38-13.1-2.81-7.09-5.76-14.1-9-21-0.77-1.72-1.54-3.45-2.31-5.18-0.33-0.74-0.65-1.48-0.99-2.23-0.34-0.79-0.34-0.79-0.7-1.59h-2z" fill="#000100"/>
<path transform="translate(686 450)" d="m0 0c0.92 0 1.84 0 2.79 0.01h3.16c1.13 0 2.26 0.01 3.43 0.01 1.15 0 2.3 0.01 3.49 0.01 3.7 0 7.4 0.02 11.1 0.03 2.5 0 5 0.01 7.5 0.01 6.15 0.01 12.3 0.03 18.4 0.05v2.59c0.04 20.8 0.1 41.6 0.18 62.4 0.04 10.1 0.07 20.1 0.09 30.2 0.01 8.78 0.04 17.6 0.08 26.3 0.02 4.64 0.04 9.29 0.04 13.9 0 4.38 0.01 8.76 0.05 13.1 0.01 1.6 0.01 3.2 0 4.8-0.04 13.1 2.31 24 8.6 35.6 0.96 1.93 0.96 1.93 0.96 3.93h2c0.49 0.8 0.99 1.61 1.5 2.44 6.43 10 16.6 15.9 27.9 18.9 15.2 2.77 30.2-0.34 43.2-8.59 16.1-11.1 24.8-27.8 28.5-46.7 0.39-4.43 0.43-8.83 0.42-13.3 0-1.27 0.01-2.54 0.02-3.85 0.02-3.44 0.03-6.88 0.02-10.3 0-2.89 0.01-5.78 0.02-8.67 0.02-6.83 0.02-13.6 0.02-20.5-0.01-7 0.01-14 0.05-21 0.03-6.04 0.04-12.1 0.04-18.1 0-3.6 0-7.2 0.03-10.8 0.02-4.01 0.01-8.03-0.01-12 0.01-1.17 0.03-2.33 0.04-3.54-0.11-11.2-3.83-20.6-9.83-30-1.04-2.39-0.74-3.5 0.18-5.9 1-1 1-1 2.82-1.12 0.8 0 1.6 0 2.42 0.01h2.73c0.98 0 1.96 0.01 2.97 0.01 0.99 0 1.99 0.01 3.02 0.01 3.2 0 6.4 0.02 9.6 0.03 2.16 0 4.32 0.01 6.49 0.01 5.31 0.01 10.6 0.03 16 0.05 0.98 3.69 1.11 5.65-0.62 9.07-0.36 0.73-0.72 1.46-1.09 2.22-0.39 0.75-0.77 1.5-1.17 2.27-0.75 1.5-1.5 3-2.24 4.51-0.34 0.66-0.67 1.32-1.02 1.99-1.73 3.88-1.99 7.37-2 11.6-0.01 1.15-0.01 2.3-0.02 3.49v3.82c-0.01 1.34-0.01 2.69-0.02 4.03-0.01 2.9-0.02 5.79-0.02 8.69-0.01 4.59-0.03 9.18-0.06 13.8-0.06 13.1-0.11 26.1-0.15 39.2-0.01 7.21-0.04 14.4-0.08 21.6-0.02 3.81-0.04 7.62-0.04 11.4-0.03 32.7-4.46 56.7-28 80.8-17 16.1-40.8 25.3-64.2 24.7-25.7-1.95-48.2-8.76-68.3-25.2-0.68-0.53-1.36-1.07-2.05-1.62-8.04-6.56-13.6-14.6-19-23.4-0.78-1.22-0.78-1.22-1.57-2.47-1.54-2.71-2.57-5.33-3.56-8.28-0.33-0.96-0.66-1.93-1.01-2.92-2.31-8.87-2.01-18-2.01-27.1 0-1.47 0-2.95-0.01-4.42 0-3.16-0.01-6.32-0.01-9.48-0.01-5-0.03-10-0.04-15-0.01-1.71-0.02-3.43-0.02-5.15-0.01-0.86-0.01-1.72-0.01-2.6-0.04-11.6-0.08-23.3-0.09-34.9-0.01-7.87-0.03-15.7-0.07-23.6-0.02-4.15-0.03-8.3-0.03-12.5 0.01-3.91-0.01-7.81-0.03-11.7-0.01-1.43-0.01-2.86 0-4.28 0.03-7.3-0.1-13.4-3.66-19.8-1.3-2.63-1.24-4.92-0.88-7.79 1-1 1-1 3.09-1.12z" fill="#000100"/>
<path transform="translate(102 450)" d="m0 0c1.38 0.01 1.38 0.01 2.79 0.01h3.15c1.69 0.02 1.69 0.02 3.42 0.04h3.48c3.69 0.01 7.38 0.04 11.1 0.07 2.5 0.01 4.99 0.01 7.49 0.02 6.13 0.02 12.3 0.06 18.4 0.1 0.07 28.2 0.12 56.3 0.15 84.4 0.02 13.1 0.04 26.1 0.07 39.2 0.03 11.4 0.05 22.8 0.06 34.2 0 6.03 0.01 12.1 0.03 18.1 0.02 5.68 0.03 11.4 0.02 17.1 0.01 2.07 0.01 4.15 0.02 6.23 0.15 27-6.83 48.7-20.4 72-0.9 1.56-1.78 3.13-2.65 4.71-0.45 0.66-0.9 1.33-1.35 2.02h-2c-0.23 0.72-0.46 1.44-0.69 2.19-1.61 3.44-3.54 5.21-6.31 7.81-1.92 1.98-3.84 3.96-5.75 5.94-7.38 6.74-11.6 7.78-21.5 7.55-1.17-0.01-2.33-0.02-3.54-0.02-3.71-0.03-7.41-0.09-11.1-0.16-2.52-0.02-5.05-0.04-7.57-0.07-6.16-0.05-12.3-0.13-18.5-0.24 1.09-3.29 1.84-3.97 4.43-6.12 0.72-0.62 1.44-1.23 2.19-1.86 1.17-1 1.17-1 2.38-2.02 5.92-5.13 11.4-10.3 16.4-16.4 0.53-0.54 1.05-1.09 1.6-1.65h2c0.26-0.74 0.53-1.47 0.8-2.23 1.18-2.74 2.51-4.67 4.32-7.02 14.8-20.8 19.4-45.7 19.3-70.6 0.01-1.84 0.01-3.67 0.02-5.51 0.02-4.93 0.02-9.87 0.01-14.8 0-4.13 0-8.27 0.01-12.4 0.01-9.75 0.01-19.5 0-29.3-0.01-10 0-20.1 0.03-30.1 0.02-8.66 0.03-17.3 0.02-26 0-5.16 0-10.3 0.02-15.5 0.02-4.85 0.01-9.69-0.01-14.5 0-1.77 0-3.54 0.01-5.31 0.06-10.8-0.51-20.1-5.63-29.9-1.28-2.71-1.14-4.94-0.88-7.88 2-2 2-2 4.21-2.24z" fill="#000100"/>
</svg>
