<?xml version="1.0" encoding="UTF-8"?>
<svg version="1.1" viewBox="0 0 1248 1600" width="1280" height="1280" xmlns="http://www.w3.org/2000/svg">
<path transform="translate(657,36)" d="m0 0v1c0.57 0.06 1.13 0.11 1.71 0.17 2.56 0.25 5.11 0.51 7.67 0.77 1.33 0.13 1.33 0.13 2.69 0.26 0.85 0.09 1.7 0.18 2.58 0.26 1.18 0.12 1.18 0.12 2.38 0.24 1.97 0.3 1.97 0.3 3.97 1.3v2c1.99-0.03 3.97-0.07 5.96-0.1 2.04 0.1 2.04 0.1 5.04 1.1 1.33 0.34 2.67 0.67 4 1 1.92 0.52 3.83 1.04 5.75 1.56 1.48 0.41 1.48 0.41 2.98 0.82 1.13 0.31 1.13 0.31 2.27 0.62v2c1.49-0.5 1.49-0.5 3-1 1.91 0.64 1.91 0.64 4.06 1.69 3.32 1.57 6.64 3 10.1 4.31 3.07 1.21 5.92 2.51 8.76 4.19 2.52 1.46 4.29 2.36 7.12 2.81v2c0.87 0.27 1.73 0.54 2.62 0.81 3.3 1.16 6.29 2.57 9.38 4.19v2c0.7 0.27 1.4 0.54 2.12 0.81 3.04 1.26 5.95 2.69 8.88 4.19v2c0.74 0.27 1.49 0.54 2.25 0.81 2.64 1.14 4.61 2.28 6.75 4.19v2h3v2c0.99 0.33 1.98 0.66 3 1v2c0.52 0.23 1.03 0.45 1.56 0.69 7.2 3.88 11.5 8.55 16.5 15 1.71 2.39 1.71 2.39 3.92 3.33v2h2c5 5.48 5 5.48 5 8h2l1 4h2v2h2c1.29 1.46 1.29 1.46 2.62 3.38 0.45 0.62 0.9 1.25 1.36 1.89 1.02 1.73 1.02 1.73 1.02 3.73h2v3h2c3 4.38 3 4.38 3 7h2c1.29 1.64 1.29 1.64 2.62 3.81 0.67 1.06 0.67 1.06 1.36 2.15 1.02 2.04 1.02 2.04 1.02 5.04h2c3 5.75 3 5.75 3 8h2v4h2c3 6.63 3 6.63 3 10h2c12.4 25.9 12.4 25.9 12 33h2c0.25 0.91 0.51 1.81 0.77 2.75 2.29 8.14 2.29 8.14 4.92 16.2 1.27 3.68 1.83 7.2 2.31 11.1l1 1c0.55 2.5 1.04 4.99 1.5 7.5 0.13 0.72 0.27 1.45 0.41 2.2 0.71 3.9 1.32 7.78 1.71 11.7-0.02 3.37-0.02 3.37 1.38 4.56 0.21 2.27 0.37 4.54 0.5 6.81 0.23 3.94 0.54 7.35 1.5 11.2v16h228v2c0.89 0.1 1.77 0.21 2.69 0.31 3.39 0.71 5.53 1.65 8.31 3.69v2h2c2.61 4.53 3.38 7.77 3.36 13 0 0.67 0.01 1.34 0.01 2.03 0 2.2-0.03 4.41-0.06 6.61-0.01 1.57-0.02 3.13-0.03 4.69-0.1 12.5-0.72 24.9-1.5 37.4-0.73 11.8-1.16 23.6-1.44 35.4-0.03 1.25-0.06 2.49-0.09 3.77-0.03 1.08-0.05 2.17-0.08 3.29-0.17 2.93-0.17 2.93-0.67 5.35-0.65 3.36-0.71 6.69-0.78 10.1-0.02 0.71-0.04 1.43-0.06 2.16-0.06 2.27-0.11 4.54-0.16 6.81-0.07 2.99-0.14 5.98-0.22 8.97-0.01 0.68-0.03 1.36-0.04 2.06-0.09 3.61-0.51 6.94-1.24 10.5-0.12 1.93-0.2 3.86-0.25 5.79-0.03 1.15-0.06 2.3-0.09 3.48-0.03 1.25-0.06 2.5-0.1 3.79-0.33 11.6-0.87 23.2-1.56 34.8-0.81 13.6-1.35 27.3-1.66 40.9-0.03 1.29-0.06 2.58-0.09 3.91-0.03 1.13-0.05 2.26-0.08 3.43-0.17 2.91-0.17 2.91-0.67 4.85-0.76 3.13-0.71 6.21-0.78 9.42-0.02 0.71-0.04 1.42-0.06 2.16-0.06 2.26-0.11 4.53-0.16 6.79-0.07 2.98-0.14 5.95-0.22 8.93-0.02 1.01-0.02 1.01-0.04 2.04-0.08 3.06-0.28 6.02-0.73 9.06-0.65 4.67-0.83 9.31-1.01 14-0.04 0.99-0.08 1.98-0.12 3.01-0.13 3.16-0.26 6.33-0.38 9.5-0.16 4.14-0.33 8.28-0.5 12.4-0.06 1.52-0.06 1.52-0.12 3.07-0.25 5.85-0.54 11.7-0.91 17.5-0.59 9.42-0.81 18.8-1.02 28.3-0.05 2.23-0.11 4.46-0.17 6.69-0.03 1.3-0.06 2.6-0.09 3.94-0.19 3.19-0.19 3.19-1.19 6.19-0.14 2.5-0.23 4.98-0.28 7.48-0.02 0.74-0.04 1.47-0.06 2.23-0.06 2.35-0.11 4.69-0.16 7.04-0.07 3.08-0.14 6.16-0.22 9.23-0.02 1.05-0.02 1.05-0.04 2.12-0.08 3.11-0.27 6.12-0.73 9.21-0.68 4.93-0.84 9.84-1.01 14.8-0.04 1.07-0.08 2.13-0.12 3.23-0.13 3.4-0.26 6.8-0.38 10.2-0.16 4.46-0.33 8.92-0.5 13.4-0.06 1.61-0.06 1.61-0.12 3.26-0.26 6.49-0.65 13-1.16 19.4-0.52 7.97-0.6 16-0.77 24-0.05 2.32-0.11 4.64-0.17 6.95-0.02 1.06-0.02 1.06-0.04 2.14-0.08 3.03-0.28 5.43-1.24 8.32-0.14 2.33-0.23 4.67-0.28 7.01-0.02 0.69-0.04 1.38-0.06 2.08-0.06 2.2-0.11 4.4-0.16 6.6-0.05 2.18-0.1 4.36-0.16 6.54-0.06 1.99-0.1 3.98-0.15 5.97-0.16 3.23-0.52 6.35-0.95 9.55-0.51 4.74-0.58 9.51-0.74 14.3-0.04 1.14-0.08 2.29-0.12 3.46-0.13 3.63-0.26 7.26-0.38 10.9-0.16 4.77-0.33 9.55-0.5 14.3-0.04 1.08-0.07 2.17-0.11 3.28-0.2 5.6-0.57 11.1-1.17 16.7-0.34 3.61-0.43 7.22-0.5 10.8-0.04 1.55-0.08 3.1-0.11 4.64-0.06 2.4-0.11 4.8-0.16 7.2-0.05 2.34-0.11 4.69-0.17 7.03-0.02 1.08-0.02 1.08-0.04 2.18-0.08 3.06-0.27 5.5-1.24 8.42-0.13 2.21-0.2 4.42-0.25 6.63-0.03 1.37-0.06 2.73-0.09 4.1-0.02 0.72-0.03 1.43-0.05 2.17-1.12 50.1-1.12 50.1-9.61 69.1-0.58 1.37-1.17 2.75-1.75 4.12-0.62 1.43-0.62 1.43-1.25 2.88h-2c-0.12 0.56-0.25 1.11-0.38 1.69-0.68 2.53-1.61 4.89-2.62 7.31h-2v3h-2c-0.27 0.56-0.54 1.11-0.81 1.69-2.5 4.86-5.08 8.62-9.19 12.3h-2v2c-1.46 1.29-1.46 1.29-3.38 2.62-0.93 0.67-0.93 0.67-1.89 1.36-1.73 1.02-1.73 1.02-3.73 1.02v2h-3v2l-5.25 2.88c-0.97 0.53-1.95 1.06-2.95 1.61-0.93 0.5-1.85 1-2.8 1.51-0.7 0.39-1.39 0.79-2.11 1.2-1.89 0.8-1.89 0.8-5.89 0.8v2h-5v2c-8 1.75-15.6 2.29-23.8 2.27-1.25 0.01-2.5 0.01-3.79 0.02-3.45 0.01-6.91 0.01-10.4 0.01-3.77 0.01-7.53 0.02-11.3 0.03-6.59 0.02-13.2 0.03-19.8 0.04-9.81 0.01-19.6 0.03-29.4 0.06-18.5 0.04-37.1 0.07-55.6 0.1-14.3 0.02-28.6 0.04-42.9 0.07-4.12 0.01-8.24 0.01-12.4 0.02-1.54 0-1.54 0-3.11 0.01-28.8 0.05-57.6 0.09-86.4 0.13-1.63 0-1.63 0-3.29 0.01-5.51 0-11 0.01-16.5 0.02h-3.31c-2.21 0.01-4.43 0.01-6.64 0.01-34.4 0.05-68.8 0.11-103 0.18-38.7 0.09-77.3 0.16-116 0.21-4.12 0-8.25 0.01-12.4 0.02h-3.08c-16.3 0.02-32.6 0.06-49 0.1-16.4 0.04-32.8 0.06-49.2 0.07-9.74 0.01-19.5 0.02-29.2 0.06-6.52 0.02-13 0.02-19.6 0.02-3.7-0.01-7.41 0-11.1 0.02-28.2 0.15-49-3.94-71.6-21.5-1.02-0.75-1.02-0.75-2.07-1.52-3.5-2.68-6.38-5.79-9.12-9.23-1.61-2.32-1.61-2.32-3.81-3.25v-3h-2c-8.74-14.9-17-30.5-17.9-48.2-0.04-1.89-0.04-1.89-1.14-3.79-0.14-1.77-0.23-3.54-0.28-5.31-0.04-1.12-0.07-2.23-0.11-3.37-0.04-1.22-0.07-2.43-0.11-3.68-0.04-1.24-0.08-2.49-0.12-3.78-0.11-3.34-0.22-6.67-0.32-10-0.18-5.92-0.37-11.8-0.56-17.8-0.04-1.26-0.08-2.52-0.12-3.82-0.25-7.32-0.62-14.6-1.16-21.9-0.49-7.59-0.59-15.2-0.77-22.8-0.05-2.17-0.11-4.33-0.17-6.5-0.04-1.9-0.04-1.9-0.09-3.83-0.06-3.03-0.06-3.03-0.68-5.03-0.69-3.01-0.76-5.92-0.88-9.01-0.03-0.67-0.06-1.35-0.09-2.04-0.09-2.25-0.17-4.49-0.26-6.73-0.06-1.58-0.13-3.17-0.19-4.75-0.17-4.19-0.33-8.39-0.49-12.6-0.13-3.33-0.26-6.66-0.4-9.99-1.06-26.6-1.06-26.6-1.48-39.5-0.04-1.3-0.09-2.59-0.13-3.93-0.08-2.37-0.15-4.73-0.22-7.1-0.22-6.82-0.64-13.6-1.15-20.4-0.26-3.8-0.39-7.59-0.47-11.4-0.03-1.42-0.06-2.83-0.1-4.24-0.04-2.15-0.09-4.3-0.13-6.45-0.04-2.12-0.09-4.25-0.14-6.38-0.03-1.24-0.05-2.48-0.08-3.76-0.23-3.03-0.63-5.62-1.29-8.56-1.34-6.35-1.45-12.7-1.61-19.1-0.04-1.31-0.08-2.62-0.12-3.98-0.1-3.51-0.19-7.03-0.28-10.5-0.1-3.62-0.21-7.25-0.31-10.9-0.33-11.4-0.64-22.7-0.93-34.1l-0.21-7.65-0.21-8.73c-0.03-1.24-0.06-2.49-0.09-3.77-0.03-1.05-0.05-2.1-0.08-3.18-0.02-2.43-0.02-2.43-1.17-4.42-0.11-1.4-0.17-2.8-0.19-4.2-0.02-1.3-0.02-1.3-0.05-2.63-0.01-0.94-0.03-1.88-0.04-2.85-0.02-0.96-0.04-1.93-0.06-2.92-0.06-3.09-0.11-6.18-0.16-9.28-0.07-4.06-0.14-8.11-0.22-12.2-0.01-0.94-0.03-1.88-0.04-2.84-0.02-0.87-0.03-1.75-0.05-2.65-0.01-0.77-0.03-1.53-0.04-2.32-0.15-2.16-0.62-4.05-1.15-6.14-0.14-2.88-0.23-5.75-0.28-8.63-0.02-0.84-0.04-1.67-0.06-2.53-0.08-3.56-0.14-7.11-0.21-10.7-0.05-2.6-0.11-5.2-0.17-7.8-0.01-0.81-0.03-1.62-0.04-2.45 0-4.09 0-4.09-1.24-7.92-0.14-1.79-0.23-3.59-0.28-5.39-0.04-1.13-0.07-2.26-0.11-3.42-0.04-1.23-0.07-2.46-0.11-3.73-0.06-1.9-0.06-1.9-0.12-3.84-0.11-3.39-0.22-6.78-0.32-10.2-0.18-6.02-0.37-12-0.56-18-0.04-1.29-0.08-2.57-0.12-3.89-0.26-7.7-0.63-15.4-1.16-23-0.48-7.62-0.62-15.3-0.83-22.9-0.05-1.89-0.05-1.89-0.11-3.81-0.03-1.11-0.06-2.22-0.09-3.37-0.18-3.15-0.55-6.23-0.96-9.36-0.38-3.42-0.43-6.83-0.48-10.3-0.03-1.58-0.06-3.16-0.09-4.73-0.02-0.82-0.03-1.63-0.05-2.47-0.23-11.8-0.51-23.4-1.61-35.2-1.13-12.1-1.41-24.1-1.66-36.2-0.14-6.88-0.34-13.7-0.85-20.6-0.59-8.19-0.75-16.4-0.79-24.6-0.01-1.7-0.03-3.39-0.06-5.08-0.04-2.49-0.06-4.98-0.07-7.47-0.01-0.75-0.03-1.5-0.05-2.27 0.02-5.49 1.38-8.65 4.48-13.2 2.22-1.96 2.22-1.96 4.5-3.38 1.13-0.72 1.13-0.72 2.28-1.46 3.4-1.78 6.45-2.29 10.3-2.28 0.8-0.01 1.59-0.01 2.42-0.01 1.31 0.01 1.31 0.01 2.64 0.01h2.82c3.12 0 6.25 0 9.37 0.01h6.71c6.08 0 12.2 0 18.2 0.01 6.35 0 12.7 0.01 19.1 0.01 10.7 0 21.3 0.01 32 0.01l32.9 0.03h2.06 10.2c28.2 0.01 56.4 0.03 84.5 0.05 0.07-1.28 0.13-2.55 0.2-3.87 0.09-1.71 0.18-3.41 0.27-5.12 0.04-0.84 0.09-1.68 0.13-2.54 1.11-21.2 1.11-21.2 2.4-22.5 0.16-1.41 0.28-2.83 0.38-4.25 0.47-5.3 1.6-10.3 2.85-15.5 1.11-4.72 1.96-9.49 2.77-14.3h2c-0.04-0.87-0.08-1.73-0.12-2.62 0.13-3.61 0.91-5.99 2.12-9.38 1.04-3.66 2.02-7.33 3-11h2v-5h2c0.09-0.99 0.19-1.97 0.29-2.99 0.63-4.4 2.29-8.13 4.15-12.1 0.62-1.38 1.25-2.76 1.87-4.14 0.29-0.64 0.58-1.28 0.88-1.94 1.01-2.24 1.92-4.51 2.81-6.8h2c0.11-0.72 0.22-1.44 0.34-2.19 2.01-8.58 8.27-16.5 12.9-24 1.37-2.25 2.61-4.47 3.73-6.85h2c0.31-0.78 0.62-1.57 0.94-2.38 1.06-2.62 1.06-2.62 2.06-4.62h2c0.12-0.6 0.25-1.2 0.38-1.81 0.62-2.19 0.62-2.19 2.62-5.19h2l1-5h2v-2h2c0.25-0.56 0.5-1.12 0.76-1.69 3.44-6.41 8.78-12.5 14.2-17.3h2v-2c1.61-1.62 1.61-1.62 3.75-3.44 0.7-0.59 1.39-1.19 2.11-1.81 5.8-4.75 5.8-4.75 8.14-4.75v-2h2v-2c2.83-2.55 5.94-4.74 9-7 1.02-0.78 1.02-0.78 2.05-1.57 4.58-3.43 4.58-3.43 7.95-3.43v-2c4.38-3 4.38-3 7-3v-2c1.62-0.84 3.25-1.67 4.88-2.5 1.35-0.7 1.35-0.7 2.74-1.41 2.38-1.09 2.38-1.09 4.38-1.09v-2c0.66-0.25 1.33-0.51 2.01-0.77 0.88-0.34 1.77-0.69 2.68-1.04 0.87-0.34 1.74-0.68 2.63-1.02 2.7-1.11 2.7-1.11 5.12-2.67 2.87-1.68 5.64-2.63 8.81-3.62 3.66-0.92 3.66-0.92 6.75-2.88 1.67-0.04 3.33-0.04 5 0l1-3c0.76-0.1 1.53-0.21 2.31-0.31 3-0.56 5.82-1.25 8.75-2.07 12-3.31 23.6-5.33 35.9-6.31 1.14-0.09 1.14-0.09 2.31-0.19 12.2-1.02 24.4-1.51 36.7-1.12zm-32 64c-2.1 0.23-4.2 0.4-6.31 0.5-5.44 0.36-10.4 1.15-15.7 2.5-0.96 0.22-1.92 0.43-2.9 0.66-5.7 1.32-10.9 2.9-16.2 5.47-1.96 0.88-3.84 1.41-5.94 1.87v2c-0.54 0.11-1.09 0.22-1.64 0.33-7.77 2.2-15 6.84-21.5 11.5-1.84 1.2-1.84 1.2-4.84 2.2v2c-0.74 0.27-1.49 0.54-2.25 0.81-2.64 1.14-4.61 2.28-6.75 4.19v2c-0.58 0.27-1.15 0.54-1.75 0.81-2.31 1.22-4.27 2.49-6.25 4.19v2h-2v2c-0.64 0.27-1.28 0.54-1.94 0.81-2.39 1.08-2.39 1.08-3.06 4.19h-2v2c-0.99 0.33-1.98 0.66-3 1v2h-2v2h-2v3h-2v2h-2c-2.3 2.56-3 3.48-3 7h-2v2h-2c-2.32 3.22-2.32 3.22-3 7h-2c-2.04 2.91-3 4.4-3 8h-2v4h-2c-1.63 3.06-3.25 6.12-4.88 9.19-0.46 0.86-0.92 1.73-1.39 2.62-0.67 1.26-0.67 1.26-1.35 2.55-0.41 0.77-0.81 1.54-1.23 2.33-2.01 4.04-3.15 6.72-3.15 11.3h-2c-2.6 6.81-2.6 6.81-3 14h-2c-0.82 3.02-1.63 6.04-2.44 9.06-0.23 0.85-0.46 1.7-0.69 2.57-1.02 3.8-1.96 7.53-2.47 11.4-0.4 2.94-0.4 2.94-1.4 3.94-0.21 1.47-0.37 2.95-0.5 4.44-0.39 4.34-0.39 4.34-1.5 6.56-0.45 4.13-0.71 8.28-0.98 12.4-0.14 2.06-0.29 4.12-0.45 6.18-0.08 1.3-0.17 2.59-0.27 3.92-0.08 1.19-0.16 2.38-0.25 3.61-0.27 2.81-0.27 2.81 0.95 4.86 0.99-0.33 1.98-0.66 3-1 1.9-0.09 3.81-0.12 5.71-0.12 1.8-0.01 1.8-0.01 3.63-0.01 1.33 0 2.67 0.01 4 0.01h4.24c3.9-0.01 7.79 0 11.7 0 4.2 0.01 8.39 0.01 12.6 0.01h21.8c10.5 0.01 21 0.02 31.5 0.02 17 0 34.1 0.01 51.2 0.01l49.7 0.03h3.09 15.4c42.5 0.01 85 0.03 128 0.05l0.03-6.18c0-1.72 0-1.72 0.01-3.47-0.05-4.39-0.44-8.69-0.98-13-0.08-0.78-0.17-1.56-0.26-2.37-0.42-4.1-0.42-4.1-1.8-7.94-0.22-1.54-0.41-3.08-0.56-4.62-0.13-1.23-0.13-1.23-0.26-2.48-0.06-0.63-0.12-1.25-0.18-1.9h-2c0.06-0.89 0.12-1.77 0.19-2.69 0-8.45-2.79-16.7-6.19-24.3-1.41-4.31-2.71-8.65-4-13h-2c-0.08-0.78-0.16-1.57-0.25-2.38-0.99-4.8-2.84-9.12-4.75-13.6h-2c-0.08-0.68-0.16-1.36-0.25-2.06-0.97-3.81-2.71-6.58-4.75-9.94h-2c-0.12-0.74-0.25-1.49-0.38-2.25-0.57-2.55-1.36-4.48-2.62-6.75h-2v-3h-2c-0.46-1.18-0.46-1.18-0.94-2.38-0.99-2.54-0.99-2.54-2.06-4.62h-2c-0.27-0.74-0.54-1.49-0.81-2.25-1.14-2.64-2.28-4.61-4.19-6.75h-2l-2-5h-2c-0.28-0.59-0.56-1.19-0.85-1.8-4.07-7.78-12.9-16.4-21.2-19.2v-2h-2v-2c-3.22-2.32-3.22-2.32-7-3v-2h-3v-2c-0.74-0.39-1.47-0.77-2.23-1.17-4.92-2.63-9.56-5.13-13.8-8.83-2.48-2.17-3.43-2.96-6.75-3.19-1.11 0.1-1.11 0.1-2.25 0.19l1-2c-12.7-5.52-25.4-7.99-39-10-1.17-0.19-2.35-0.37-3.55-0.56-4.5-0.57-8.99-0.88-13.5-1.13-0.87-0.06-1.75-0.12-2.65-0.18-4.99-0.28-8.55 0.08-13.3 1.87zm-17 336c-1.5 0.18-3 0.32-4.5 0.44-20.8 1.92-41.3 9.9-59.5 19.9-2.65 1.45-5.12 2.72-7.99 3.68v2c-0.78 0.31-1.57 0.62-2.38 0.94-2.54 0.99-2.54 0.99-4.62 2.06v2h-3v2l-4 1v2l-5 2v2c-0.64 0.27-1.28 0.54-1.94 0.81-2.39 1.08-2.39 1.08-3.06 4.19h-2v2c-0.64 0.27-1.28 0.54-1.94 0.81-2.39 1.08-2.39 1.08-3.06 4.19h-2v2h-2c-1.01 1.66-2.01 3.33-3 5-0.62 0.6-1.24 1.2-1.88 1.81-3.01 3.1-7.12 7.69-7.12 12.2h-2c-2.29 4.81-2.29 4.81-3 10h-2v4h-2c-2.04 4.93-3.41 8.58-3 14h-2c-1.03 4.66-2.02 9.33-3 14-0.21 0.96-0.43 1.91-0.64 2.9-3.64 18.2-1.8 38.4 3.64 56.1h2c0.08 0.95 0.17 1.9 0.25 2.88 1.22 8.38 5.5 15.9 9.75 23.1h2v4h2c0.31 0.78 0.62 1.57 0.94 2.38 0.99 2.54 0.99 2.54 2.06 4.62h2c0.27 0.58 0.54 1.15 0.81 1.75 1.22 2.31 2.49 4.27 4.19 6.25h2v2h2c0.27 0.6 0.54 1.2 0.81 1.81 1.19 2.19 2.29 3.6 4.19 5.19h2c0.27 0.64 0.54 1.28 0.81 1.94 1.08 2.39 1.08 2.39 4.19 3.06v2h3v2h2v2c2.56 2.3 3.48 3 7 3v2h2v2c1.47 1.23 1.47 1.23 3.39 2.38 0.71 0.45 1.42 0.89 2.15 1.35 0.75 0.46 1.5 0.92 2.27 1.39 1.11 0.71 1.11 0.71 2.24 1.42 4.15 2.74 4.15 2.74 8.95 3.46v2l4.38 1.5c0.81 0.28 1.62 0.56 2.46 0.84 2.1 0.76 2.1 0.76 4.16 0.66v2h4v2c1.62 0.5 3.25 1 4.88 1.5 0.9 0.28 1.8 0.56 2.74 0.84 2.29 0.75 2.29 0.75 4.38 0.66v2c5.03 2.4 9.45 4.17 15 5l1 2h5v2c0.54 0.12 1.07 0.25 1.62 0.38 2.84 0.74 5.6 1.67 8.38 2.62 0.99 0.33 1.98 0.66 3 1 1.34 0.65 2.67 1.32 4 2 6.66 3.47 6.66 3.47 14 4v2c0.8 0.19 1.59 0.39 2.41 0.59 5.28 1.29 10.4 2.69 15.6 4.41h3v2h6v2c6.43 1.98 6.43 1.98 13 4v1c0.84 0.26 0.84 0.26 1.69 0.52 4.77 1.51 9.11 3.26 13.5 5.71 2.1 1.03 2.1 1.03 5.82 0.77v2c2.56 1.29 5.12 2.59 7.69 3.88 0.72 0.36 1.44 0.72 2.18 1.1 3.66 1.84 7.29 3.58 11.1 5.02v2c1.09 0.64 2.19 1.28 3.31 1.94 0.62 0.36 1.23 0.72 1.87 1.09 1.96 1.11 1.96 1.11 4.82 1.97v2l4 1v2l5 2v2h2v2c1.33 1.67 1.33 1.67 3 3h2v2h2l1 3h2v2h2v3h2l1 4h2v3h2c0.12 0.56 0.25 1.11 0.38 1.69 0.68 2.53 1.61 4.89 2.62 7.31h2c0.14 0.73 0.27 1.45 0.41 2.2 0.71 3.38 1.73 6.62 2.77 9.91 2.11 7.45 3.18 14.3 3.13 22.1 0 0.92-0.01 1.84-0.01 2.78-0.21 11.9-2.69 21.7-8.09 32.4-1.42 2.61-1.42 2.61-1.21 5.64h-2v3h-2c-2.32 3.22-2.32 3.22-3 7h-2v2h-2c-1.7 1.72-1.7 1.72-3.44 3.88-2.14 2.58-3.73 4.23-6.56 6.12v2h-2v2h-3v2l-4 1v2h-3v2h-4v2l-5 1v2c-0.68 0.1-1.36 0.21-2.06 0.31-3.1 0.64-3.1 0.64-6.44 2.19-2.92 1.25-5.38 2.03-8.5 2.5v2h-6v2c-0.59 0.05-1.19 0.1-1.8 0.15-10.8 0.23-10.8 0.23-20.2 3.85-4.46 0.6-8.95 0.87-13.4 1.19-0.66 0.04-1.33 0.09-2.02 0.14-9.81 0.67-19.4 0.7-29.2-0.08-1.09-0.09-2.19-0.17-3.32-0.26-7.57-0.71-7.57-0.71-11-2.99-2.45-0.37-4.85-0.65-7.31-0.88-8.71-0.94-18.3-2.19-25.7-7.12-5.54-1.82-11.2-3.22-17-4v-2c-0.62-0.24-1.23-0.48-1.87-0.73-5.19-2.06-10.3-4.22-15.3-6.63-0.6-0.21-1.19-0.42-1.81-0.64l-2 1v-3c-0.59-0.25-1.18-0.51-1.79-0.77-4.26-1.85-8.22-3.84-12.2-6.23-1.33-0.34-2.66-0.68-4-1-2-2-2-2-3-4-1.65-0.72-3.31-1.38-5-2-2-1-2-1-3.5-2.56-1.39-1.67-1.39-1.67-3.5-1.44-2-1.33-4-2.67-6-4h-2c-0.23-0.78-0.45-1.57-0.69-2.38-1.64-3.29-2.95-3.42-6.31-4.62-0.5-1.49-0.5-1.49-1-3-1.62-0.03-3.25-0.05-4.88-0.06-0.9-0.01-1.8-0.03-2.74-0.04-2.4-0.06-2.4-0.06-4.38 1.1v2h-2c-1.37 1.68-1.37 1.68-2.62 3.81-0.45 0.71-0.9 1.42-1.36 2.15-1.24 2.11-1.24 2.11-1.02 5.04h-2c-2.32 3.22-2.32 3.22-3 7h-2v3h-2c-0.5 1.98-0.5 1.98-1 4h-2v3h-2c-1.89 2.77-1.99 4.13-1.81 7.56 0.92 3.93 0.92 3.93 3.81 6.44h2v2h3v2h2v2c3.22 2.32 3.22 2.32 7 3v2c3.22 2.32 3.22 2.32 7 3v2l5 2v2c2.08 1.48 4.13 2.81 6.31 4.12 0.6 0.38 1.19 0.75 1.81 1.13 3.66 2.24 3.66 2.24 7.88 2.75v2h3v2c2.66 1.27 5.33 2.54 8 3.81 0.74 0.36 1.49 0.72 2.25 1.08 4.85 2.3 9.71 4.29 14.8 6.11v1h5l1 2c1.99 0.7 3.99 1.37 6 2l1 1c2 0.04 4 0.04 6 0l1 2c2.72 1.08 2.72 1.08 6 2 1.18 0.35 2.35 0.7 3.56 1.06 2.82 0.77 5.58 1.37 8.44 1.94 1.99 0.44 3.98 0.89 5.97 1.34 1.15 0.26 2.3 0.52 3.48 0.78 2.38 0.54 4.76 1.08 7.14 1.62 10.3 2.31 20.5 4.25 31 5.01 2.38 0.25 2.38 0.25 4.23 0.75 2.38 0.55 4.54 0.66 6.98 0.71 0.96 0.02 1.92 0.04 2.91 0.06 1.04 0.01 2.08 0.02 3.15 0.04 1.64 0.02 1.64 0.02 3.3 0.04 3.54 0.04 7.08 0.07 10.6 0.09 1.2 0 2.4 0.01 3.63 0.02 19.3 0.05 36.9-1.46 55.6-6.46 1.6-0.4 3.19-0.8 4.79-1.2 1.06-0.26 2.12-0.53 3.21-0.8v-2c1.52-0.19 1.52-0.19 3.06-0.38 3.82-0.6 7.26-1.49 10.9-2.62v-2c0.68-0.1 1.36-0.21 2.06-0.31 6.23-1.46 11.7-4.54 17.1-7.75 7.3-4.26 7.3-4.26 10.8-5.94v-2c0.74-0.27 1.49-0.54 2.25-0.81 2.64-1.14 4.61-2.28 6.75-4.19v-2l6-3v-2h2v-2h2v-2c0.99-0.33 1.98-0.66 3-1v-2h2v-2h2l2-5h2c2.05-2.37 2.05-2.37 4.12-5.31 0.73-0.99 1.45-1.97 2.2-2.99 1.94-2.59 1.94-2.59 1.68-5.7h2c0.84-1.43 1.67-2.87 2.5-4.31 0.46-0.8 0.93-1.6 1.41-2.43 1.31-2.29 1.31-2.29 1.09-5.26h2c0.25-0.72 0.51-1.45 0.77-2.2 2.93-8.22 2.93-8.22 4.79-11.8 3.19-6.66 4.93-13.6 4.44-21h2c0.06-0.78 0.12-1.56 0.18-2.37 0.09-1.01 0.17-2.02 0.26-3.07 0.08-1.01 0.16-2.02 0.24-3.06 0.32-2.5 0.32-2.5 1.32-3.5 0.13-2.74 0.19-5.46 0.2-8.21 0.01-0.83 0.01-1.67 0.02-2.53 0.01-1.78 0.02-3.56 0.02-5.34 0.01-2.68 0.04-5.37 0.07-8.05 0.06-9.42-0.4-17.8-3.31-26.9-0.4-1.48-0.79-2.97-1.17-4.45-0.33-1.26-0.67-2.51-1.02-3.8-0.17-0.66-0.35-1.32-0.53-2-0.43-1.59-0.85-3.17-1.28-4.75h-2c-0.12-0.7-0.25-1.4-0.38-2.12-0.66-3.06-1.59-5.93-2.62-8.88h-2c-0.14-0.6-0.29-1.2-0.44-1.81-0.45-1.75-0.99-3.48-1.56-5.19h-2c-0.46-1.18-0.46-1.18-0.94-2.38-0.99-2.54-0.99-2.54-2.06-4.62h-2v-3h-2l-1-4h-2v-2h-2c-0.23-0.54-0.45-1.07-0.69-1.62-2.31-4.19-4.77-7.63-9.12-9.76-1.09-0.3-1.09-0.3-2.19-0.62v-2h-2l-1-3h-2v-2h-2v-2c-3.22-2.32-3.22-2.32-7-3v-2c-3.22-2.32-3.22-2.32-7-3v-2c-2.37-1.83-2.37-1.83-5.31-3.62-0.99-0.64-1.97-1.27-2.99-1.92-2.63-1.7-2.63-1.7-5.7-1.46v-2l-2-2-1-2c-1.11 0.03-1.11 0.03-2.25 0.06-4.61-0.1-4.61-0.1-6.75-1.06-1.25-2.56-1.25-2.56-2-5h-7v-2c-1.01-0.43-2.02-0.87-3.06-1.31-3.65-1.57-7.29-3.13-10.9-4.69l1-2c-4.39-1.56-4.39-1.56-9-2l1-2c-1.77-0.53-3.54-1.05-5.31-1.56-0.99-0.29-1.97-0.58-2.99-0.88-2.78-0.81-2.78-0.81-5.7 0.44l1-3c-0.6-0.19-1.21-0.39-1.83-0.59-0.8-0.26-1.6-0.52-2.42-0.79-0.79-0.25-1.58-0.51-2.39-0.77-2.36-0.85-2.36-0.85-4.22-1.8-2.94-1.45-5.99-2.47-9.08-3.55-6.64-2.33-6.64-2.33-9.74-3.58-3.4-1.35-6.74-2.16-10.3-2.92l-2 1-1-3c-2.72-1.07-2.72-1.07-5.94-1.75-1.08-0.26-2.16-0.53-3.27-0.8-2.74-0.72-2.74-0.72-4.79 0.55l-1-3c-2.43-0.92-2.43-0.92-5.31-1.5-4.06-0.91-6.41-2.01-9.69-4.5-2.31-0.7-2.31-0.7-4.69-1.06-2.38-0.41-2.38-0.41-4.31-0.94l-1-2c-1.87-1.03-1.87-1.03-4.12-1.94-1.22-0.51-1.22-0.51-2.46-1.04-0.8-0.33-1.6-0.67-2.42-1.02-1.01-0.48-1.01-0.48-2.05-0.96-3.84-1.88-3.84-1.88-7.95-1.04-0.06-0.62-0.12-1.24-0.19-1.88-0.64-2.36-0.64-2.36-3.19-3.43-2.7-0.97-2.7-0.97-5.62 0.31v-2h-3l-1-4c-0.58-0.1-1.15-0.21-1.75-0.31-2.62-0.8-4.18-1.98-6.31-3.69-2.44-1.94-3.94-3-6.94-4v-2h-2v-2c-2.33-2.67-2.33-2.67-5-5h-2v-2h-2l-1-3h-2v-3h-2c-0.4-1.33-0.4-1.33-0.81-2.69-1.12-3.1-2.29-5.62-4.19-8.31h-2c0.09-0.96 0.09-0.96 0.19-1.94-0.3-4.92-1.99-9.66-4.19-14.1-1.22-13.8-1.75-26.2 3.16-39.4 1.04-2.81 1.04-2.81 0.84-6.63h2v-4h2l1-5h2v-4h2c3.64-3.48 3.64-3.48 5-8h2c1.69-1.98 3.35-3.98 5-6l2-1v-2l5-2v-2c0.78-0.31 1.57-0.62 2.38-0.94 2.54-0.99 2.54-0.99 4.62-2.06v-2c0.52-0.1 1.04-0.2 1.57-0.3 3.28-0.95 6.25-2.46 9.31-3.95 9.42-4.49 18.7-8.33 29.1-9.75l1-1c21.9-4.89 48.8-4.08 70 3 2 0.35 4 0.68 6 1 0.91 0.21 1.82 0.41 2.75 0.62 2.28 0.61 2.28 0.61 4.25-0.62v2c1.15 0.21 2.31 0.41 3.5 0.62 5.46 1.19 10.6 3.2 15.7 5.26 3.92 1.53 7.55 2.59 11.8 3.12v2h5v2c1.58 0.65 3.17 1.29 4.75 1.94 0.88 0.36 1.76 0.72 2.67 1.09 2.19 0.82 4.3 1.46 6.58 1.97v2c4.26 2.36 4.26 2.36 9 3v2c3.8 2.2 3.8 2.2 8 3v2h4v2c3.33 1.76 4.59 2.11 8.31 1.12 0.89-0.37 1.78-0.74 2.69-1.12v-2h2c1.37-1.68 1.37-1.68 2.62-3.81 0.45-0.71 0.9-1.42 1.36-2.15 1.24-2.11 1.24-2.11 1.02-5.04h2v-3h2c2.04-2.91 3-4.4 3-8h2c3.09-5.89 3.09-5.89 3.94-12.4-0.96-2.67-1.65-3.97-3.94-5.62h-2v-2h-3v-2c-1.17-0.6-1.17-0.6-2.37-1.21-1.01-0.53-2.02-1.06-3.07-1.6-1.01-0.52-2.02-1.05-3.06-1.58-2.5-1.61-2.5-1.61-3.5-4.61-2.97-0.33-5.94-0.66-9-1l1-3c-0.99-0.33-1.98-0.66-3-1v2h-2v-2c-0.99-0.33-1.98-0.66-3-1l1-2c-3.29-0.8-4.71-1.1-8 0v-2h-4l1-3c-7.2-2.9-14.3-5.53-21.9-7.42-2.14-0.58-2.14-0.58-4.14-1.58-8.53-3.57-17.4-5.39-26.5-6.91-3.51-0.61-6.34-1.44-9.48-3.09-2.15-0.41-2.15-0.41-4.38-0.56-2.45-0.22-4.83-0.48-7.27-0.92-3.81-0.59-7.6-0.87-11.4-1.07-0.78-0.05-1.56-0.09-2.36-0.13-8.49-0.42-17-0.47-25.5-0.45-2.64 0.01-5.29 0-7.93-0.01-1.69 0-3.38 0.01-5.07 0.01-0.78 0-1.57-0.01-2.38-0.01-3.98-0.07-3.98-0.07-7.71 1.14z" fill="#ED4E33"/>
<path transform="translate(660 1310)" d="m0 0h2.52c1.29 0 1.29 0 2.6 0.01 1.3-0.01 1.3-0.01 2.62-0.01h2.51 2.29c2.02 0.13 2.02 0.13 5.02 1.13v17h3l1-3c2.33-1.57 2.33-1.57 5.25-3.12 0.95-0.52 1.91-1.04 2.89-1.57 2.67-1.22 4.97-1.88 7.86-2.31v-2c3.32-1.03 6.66-2.02 10-3 1.35-0.4 1.35-0.4 2.74-0.81 7.44-2.03 14.3-2.65 22-2.56 1.61-0.02 1.61-0.02 3.24-0.04 6.42 0.03 11.2 0.81 17 3.41 1.66 0.38 3.32 0.74 5 1v2h5v2c0.56 0.13 1.11 0.25 1.69 0.38 2.53 0.68 4.89 1.61 7.31 2.62v2h3v2l4 1v2l5 2v2h2c2.42 2.69 4.45 5.7 6.56 8.63 0.6 0.81 1.21 1.61 1.83 2.45 3.07 4.25 5.39 7.5 5.61 12.9h2c0.2 0.71 0.41 1.42 0.62 2.16 0.4 1.37 0.4 1.37 0.82 2.78 0.26 0.92 0.53 1.83 0.8 2.78 0.55 2.22 0.55 2.22 1.76 3.28 2.65 14.7 2.08 28.3 0 43h-2c0.05 0.71 0.1 1.41 0.15 2.14-0.18 3.4-1.18 5.61-2.65 8.68-0.47 0.97-0.93 1.95-1.41 2.95-0.54 1.11-0.54 1.11-1.09 2.23h-2v3h-2c-0.09 0.54-0.17 1.09-0.26 1.64-1 3.18-2.72 5.43-4.68 8.11-0.71 0.99-1.42 1.97-2.15 2.99-0.63 0.74-1.26 1.49-1.91 2.26h-2v2c-2.48 0.99-2.48 0.99-5 2v2h-2v2l-5 1v2h-3v2h-4v2c-2.31 0.33-4.62 0.66-7 1v2c-0.64 0.12-1.28 0.25-1.94 0.37-0.87 0.17-1.73 0.34-2.62 0.51-1.27 0.24-1.27 0.24-2.57 0.49-2.96 0.6-2.96 0.6-6.13 1.69-4.47 1.13-8.52 1.2-13.1 1.13h-2.48c-6-0.05-6-0.05-7.14-1.19-4.98-0.74-4.98-0.74-10-1-3-1-3-1-6-3-1.61-0.39-3.24-0.72-4.88-1-3.58-0.66-6.79-1.44-10.1-3v-2c-0.79-0.31-1.57-0.62-2.38-0.93-2.62-1.07-2.62-1.07-4.62-2.07v-2h-2v-2h-4v98c-4.12 1.03-7.86 1.15-12.1 1.13-0.72 0-1.44 0.01-2.19 0.01-3.18-0.01-5.71-0.12-8.75-1.14h-3v-235c3.16-0.79 5.28-1.13 8.44-1.13zm48.6 30.1v2c-1.1 0.16-1.1 0.16-2.21 0.32-3.02 0.74-4.87 1.8-7.42 3.56-0.75 0.51-1.51 1.02-2.29 1.55-1.89 1.43-3.54 2.78-5.08 4.57v2h-2c-1.37 1.68-1.37 1.68-2.63 3.82-0.44 0.7-0.89 1.41-1.35 2.14-1.25 2.11-1.25 2.11-1.02 5.04h-2c-5.15 14.2-7.45 28.5-1.17 42.9 1.87 3.8 3.97 7.46 6.17 11.1h2l2 5h2v2c2.64 2.4 2.64 2.4 6 3v2c9.86 5.67 9.86 5.67 21 7 0.99 0.33 1.98 0.66 3 1 2.59 0.13 5.15 0.19 7.75 0.19 0.69 0.01 1.38 0.02 2.09 0.04 6.7 0.02 12.4-1.81 18.6-4.35 0.86-0.36 1.73-0.71 2.62-1.07 0.64-0.27 1.28-0.53 1.94-0.81v-2c0.6-0.12 1.19-0.24 1.81-0.37 2.45-0.58 2.45-0.58 5.19-2.63v-2h2v-2h2v-2c0.99-0.33 1.98-0.66 3-1 2.28-2.81 2.28-2.81 2-6h2c2.03-3.73 3-5.67 3-10h2c4.42-15.5 2.35-29.8-5-44h-2v-3h-2c-0.5-1.98-0.5-1.98-1-4h-2v-2h-2v-2c-1.69-1.51-1.69-1.51-3.81-3-0.71-0.51-1.42-1.03-2.15-1.56-3.64-2.75-3.64-2.75-8.04-3.44l1-3c-6.7-2.46-13.2-2.33-20.3-2.31-1.18-0.02-2.35-0.03-3.56-0.05-7.22 0-13.4 0.8-20.1 3.36z" fill="#E54C32"/>
<path transform="translate(185 1216)" d="m0 0c1.86-0.02 1.86-0.02 3.77-0.04 8.21-0.01 16 0.73 24.1 2.23v1c0.97 0.19 1.95 0.38 2.95 0.58 1.91 0.39 1.91 0.39 3.86 0.79 1.26 0.26 2.53 0.51 3.83 0.78 3.36 0.85 3.36 0.85 6.36 2.85 1.54 0.58 3.11 1.12 4.68 1.62 0.81 0.26 1.62 0.52 2.45 0.79 0.62 0.19 1.23 0.39 1.87 0.59v2c0.77 0.15 0.77 0.15 1.56 0.31 3.98 1.12 7.74 2.84 11.4 4.69v2h3v2h2c0.17 3.94 0.09 6.6-2 10h-2c-0.31 0.78-0.62 1.57-0.94 2.37-1.06 2.63-1.06 2.63-2.06 4.63h-2v3c-3.52 1.2-4.9 1.04-8.42-0.37-1.22-0.63-2.44-1.28-3.65-1.94-0.61-0.33-1.22-0.65-1.85-0.98-1.7-0.89-3.39-1.8-5.08-2.71-3.84-2.01-7.83-3.53-11.9-5.1-2.14-0.9-2.14-0.9-3.14-1.9-20.2-4.19-41.9-6.26-60 5.48-2.64 1.95-4.88 4.08-7.05 6.52-0.81 0.71-0.81 0.71-1.63 1.43-5.78 6.57-6.69 15.4-6.59 23.8 0.53 6.85 3.89 13.5 8.22 18.8 0.99 0.33 1.97 0.66 3 1l5 5c4.57 3.38 9.16 5.46 14.4 7.43 0.79 0.3 1.57 0.6 2.37 0.91 12 4.58 12 4.58 24.3 8.17 6.03 1.54 11.6 4.26 16.9 7.49 0.92 0.31 1.85 0.62 2.81 0.93 3.94 1.32 7.51 3.15 11.2 5.07v2c0.71 0.1 1.43 0.2 2.17 0.31 11.6 2.83 23.8 14.4 30.8 23.7v2h2c0.79 1.39 1.58 2.79 2.37 4.19 0.44 0.77 0.88 1.55 1.34 2.35 7.44 14.2 5.81 30.2 3.29 45.5h-2c0.08 0.68 0.16 1.36 0.24 2.06-0.29 3.49-1.48 5.36-3.29 8.29-1.07 1.84-1.62 3.55-1.95 5.65h-2c-0.21 0.68-0.42 1.36-0.63 2.06-2.42 5.18-6.45 9.95-11.4 12.9h-2v2c-7.66 6.29-16.6 9.84-26.1 12.4-1.89 0.41-1.89 0.41-2.89 1.58-8.9 2.13-17.8 2.3-26.9 2.25-1.89 0.01-1.89 0.01-3.82 0.02-22-0.04-22-0.04-28.3-4.27-2.2-0.52-4.41-0.97-6.63-1.38-5.95-1.22-11-2.8-16.4-5.62-0.9-0.47-1.79-0.94-2.72-1.42-12.8-6.86-12.8-6.86-16.3-9.58v-2c-0.69-0.21-1.37-0.41-2.07-0.63-3.91-1.83-6.77-4.48-9.93-7.37 0.5-5.1 3.02-8.61 5.81-12.8 0.44-0.69 0.88-1.37 1.33-2.08 0.43-0.65 0.87-1.3 1.31-1.97 0.39-0.59 0.79-1.18 1.19-1.79 1.72-1.79 2.91-2.14 5.36-2.41 3.63 1.78 6.64 4.25 9.81 6.75 6.84 5.03 14.3 8.16 22.2 11.2 1.01 0.4 1.01 0.4 2.04 0.81 4.08 1.57 8.12 2.82 12.4 3.81 5.46 1.27 5.46 1.27 6.57 2.38 4.84 0.34 9.7 0.34 14.6 0.37 0.71 0.01 1.41 0.01 2.14 0.02 14.4 0.02 25.5-2.5 38.3-9.39h2v-2c1.15-1.16 2.31-2.31 3.49-3.45 7.38-7.63 9.86-14 9.82-24.5 0.01-0.88 0.03-1.76 0.05-2.67 0-5.28-0.57-8.77-3.36-13.4-0.69-2.38-0.69-2.38-1-4h-2c-1.14-1.38-2.22-2.8-3.26-4.25-2.92-3.86-5.52-6.3-9.74-8.75l-4.26-3c-6.69-4.46-14.1-6.84-21.7-9.29-2.07-0.71-2.07-0.71-5.39-2.21-4.3-1.75-8.59-2.75-13.1-3.76-2.57-0.74-2.57-0.74-4.57-2.74-2.03-0.71-4.07-1.35-6.13-1.94-11.3-3.39-21.6-7.4-30.9-15.1-0.82-0.65-1.63-1.3-2.47-1.97-0.82-0.65-1.63-1.3-2.47-1.97-0.82-0.65-1.63-1.3-2.47-1.96-0.85-0.7-1.71-1.39-2.59-2.1-1.01-0.77-2.02-1.53-3.06-2.32-3.26-2.97-5.13-5.78-7.2-9.62-0.33-0.59-0.67-1.19-1.02-1.8-3.34-6.02-4.8-11.5-5.72-18.3l-1-1c-0.79-8.72 0.71-16.6 3-25 0.21-0.79 0.42-1.57 0.64-2.38 0.43-1.54 0.89-3.08 1.36-4.62h2c0.1-0.57 0.2-1.13 0.31-1.71 3.76-12.6 16.9-22.1 27.7-28.3 0.68-0.4 1.37-0.8 2.08-1.22 4.7-2.54 9.52-3.9 14.7-5.17 2.18-0.4 2.18-0.4 3.23-1.61 6.96-1.43 14-1.19 21.1-1.19z" fill="#ED4E33"/>
<path transform="translate(311 1216)" d="m0 0c1.36-0.02 1.36-0.02 2.75-0.04h2.65c1.2-0.01 1.2-0.01 2.42-0.02 2.24 0.25 2.24 0.25 6.24 2.25v108c6.82-4.09 6.82-4.09 13.6-8.21 3.75-1.99 7.39-3.28 11.4-4.48 0.69-0.21 1.37-0.42 2.07-0.64 6.64-2.03 12.6-2.81 19.6-2.8 1.3 0 2.61 0 3.95-0.01 3.36 0.14 3.36 0.14 6.36 1.14 2.87 0.5 5.73 0.95 8.6 1.4 0.8 0.2 1.59 0.39 2.4 0.6l1 2c0.54 0.12 1.07 0.24 1.63 0.37 2.32 0.61 3.83 1.41 5.87 2.63 2.48 1.47 4.62 2.54 7.5 3v2c0.75 0.27 1.49 0.53 2.25 0.81 2.64 1.14 4.61 2.28 6.75 4.19v2c0.64 0.27 1.28 0.53 1.94 0.81 2.06 1.19 2.06 1.19 3.06 4.19h2c2.88 3.5 5.41 7.28 8 11 0.77 1.05 1.53 2.1 2.32 3.19 2.97 4.95 5.23 9.92 4.68 15.8h2c2.44 10.8 2.26 21.4 2.2 32.4-0.01 1.96-0.01 3.91-0.01 5.87-0.01 5.11-0.03 10.2-0.05 15.3-0.02 5.23-0.03 10.5-0.04 15.7-0.02 10.2-0.06 20.5-0.1 30.7-2.89 0.96-4.74 1.13-7.74 1.13h-2.79c-1.44 0-1.44 0-2.91-0.01-0.95 0.01-1.9 0.01-2.89 0.01h-2.79-2.54c-2.25-0.13-4.17-0.56-6.34-1.13 0-1.7 0-1.7-0.01-3.43-0.04-10.7-0.09-21.4-0.17-32-0.04-5.49-0.07-11-0.09-16.5-0.01-5.31-0.05-10.6-0.1-15.9-0.01-2.02-0.02-4.04-0.02-6.06 0.08-14.5 0.08-14.5-4.61-28.1v-2h-2c-0.49-2.48-0.49-2.48-1-5h-2c-0.29-0.81-0.57-1.61-0.87-2.44-0.86-2.7-0.86-2.7-3.13-3.56-0.99-0.33-1.98-0.66-3-1v-2l-2-1c-0.99-0.93-0.99-0.93-2-1.88-7.03-4.98-15.2-5.61-23.6-5.5-1.32-0.01-1.32-0.01-2.67-0.03-10.7 0.04-20.6 3.81-28.6 11-2.12 2.36-2.12 2.36-3.81 4.75-0.44 0.56-0.87 1.11-1.32 1.69h-2c-0.12 0.55-0.25 1.11-0.37 1.69-0.69 2.53-1.62 4.89-2.63 7.31h-2c-1.47 6.94-2.15 13.7-2.19 20.8-0.01 0.84-0.01 1.69-0.02 2.56-0.02 1.83-0.03 3.65-0.05 5.48-0.02 2.89-0.05 5.77-0.07 8.66-0.07 7.16-0.13 14.3-0.19 21.5-0.05 6.07-0.11 12.1-0.17 18.2-0.03 2.85-0.05 5.7-0.07 8.55-0.01 1.73-0.03 3.47-0.05 5.21 0 0.79-0.01 1.59-0.01 2.41-0.06 5.46-0.06 5.46-1.18 7.69h-26c-1.14-2.28-1.12-3.53-1.12-6.07-0.01-0.86-0.01-1.71-0.01-2.59 0-0.95 0-1.9 0.01-2.87-0.01-1-0.01-2-0.01-3.03v-10.1-7.23c-0.01-5.88-0.01-11.8 0-17.6v-14.3-2.06-4.14c-0.01-12.9 0-25.9 0-38.8 0.01-11.1 0.01-22.2 0-33.4 0-12.9-0.01-25.8 0-38.7v-4.13-2.05-14.3c-0.01-6.42 0-12.8 0-19.3v-7.09c0-3.22 0-6.43 0.01-9.64-0.01-0.95-0.01-1.9-0.01-2.87 0-0.86 0-1.71 0.01-2.6v-2.25c0.12-1.81 0.12-1.81 1.12-3.81 4.3-1.44 8.44-1.19 12.9-1.19z" fill="#E74C32"/>
<path transform="translate(919,1310)" d="m0 0c1.94 0.35 1.94 0.35 4.06 0.44 6.95 0.63 13.6 2.79 19.9 5.56v2h4v2l5 1v2l5 2v2c0.59 0.09 1.17 0.17 1.78 0.26 2.83 0.94 3.89 2.27 5.78 4.55 0.58 0.69 1.16 1.38 1.76 2.08 0.55 0.7 1.11 1.39 1.68 2.11 0.57 0.71 1.13 1.41 1.71 2.14 1.29 1.86 1.29 1.86 1.29 3.86h2c7.05 13.9 7.05 13.9 9 19 0.42 1.07 0.42 1.07 0.84 2.16 2.15 6.42 2.48 12.6 2.54 19.3 0.01 0.89 0.02 1.77 0.04 2.68-0.01 0.84-0.02 1.68-0.02 2.54 0 0.75-0.01 1.5-0.01 2.28-0.51 2.61-1.32 3.36-3.39 5-2.31 0.51-2.31 0.51-4.99 0.68-0.98 0.06-1.97 0.13-2.98 0.2-4.73 0.19-9.45 0.25-14.2 0.23h-3.2c-3.45 0-6.89 0-10.3-0.01-2.4 0-4.81-0.01-7.22-0.01-6.3 0-12.6-0.01-18.9-0.02-6.44-0.01-12.9-0.02-19.3-0.02-12.6-0.01-25.2-0.03-37.8-0.05l2 3c1.38 4.3 2.35 8.53 3 13h2v3h2c1.44 1.71 1.44 1.71 3 3.94 2.05 3.05 2.05 3.05 5 5.06v2c0.52 0.26 1.05 0.51 1.59 0.78 1.84 0.93 3.67 1.91 5.48 2.91 1.15 0.62 2.3 1.24 3.49 1.87 1.14 0.62 2.27 1.24 3.44 1.88 8.31 3.75 18.6 2.74 27.6 2.75 1.06 0.01 2.12 0.02 3.21 0.03 8.75 0.02 16.8-0.38 24.2-5.22h4v-2c4.38-3 4.38-3 7-3v-2c6.62-4 6.62-4 10-4v2c0.99 0.33 1.98 0.66 3 1 1.39 1.78 1.39 1.78 2.69 3.94 0.43 0.71 0.87 1.42 1.32 2.15 0.99 1.91 0.99 1.91 0.99 3.91h2c1.76 3.09 2 4.23 2 8h-2v2h-2l-1 3h-2v2c-3 2-3 2-6 2v2c-3.73 2.03-5.67 3-10 3v2c-0.65 0.19-1.3 0.39-1.98 0.59-0.87 0.26-1.74 0.52-2.64 0.79-1.38 0.4-1.38 0.4-2.79 0.82-1.9 0.59-3.78 1.24-5.65 1.92-3.37 1.01-6.59 1.35-10.1 1.63-1.87 0.06-1.87 0.06-2.86 1.25-3.91 0.25-7.83 0.19-11.8 0.19-1.65 0.02-1.65 0.02-3.33 0.03-1.06 0.01-2.12 0.01-3.22 0.01-0.97 0-1.94 0.01-2.95 0.01-2.94-0.26-5.05-1.08-7.75-2.24-2.61-0.37-5.19-0.68-7.81-0.94-5.8-0.64-10.9-1.48-16.2-4.06l-1-2c-1.66-0.69-3.33-1.35-5-2-2.81-1.5-2.81-1.5-5-3v-2c-0.78-0.31-1.57-0.62-2.38-0.94-2.62-1.06-2.62-1.06-4.62-2.06v-2h-2v-2h-2c-1.62-1.38-1.62-1.38-3-3v-2h-2v-3h-2c-1.29-1.64-1.29-1.64-2.62-3.81-0.45-0.71-0.9-1.42-1.36-2.15-1.02-2.04-1.02-2.04-1.02-5.04h-2l-1-7h-2v-5h-2c-1.97-7.87-2.3-15.4-2.25-23.5-0.01-1.16-0.02-2.32-0.02-3.51 0.01-6.9 0.59-13.3 2.27-20h2v-5h2l1-7h2v-4h2v-3h2c0.46-1.18 0.46-1.18 0.94-2.38 1.06-2.62 1.06-2.62 2.06-4.62h2v-2h2l1-3h2v-2h2v-2c11.1-10 11.1-10 16-10v-2c32.4-11.8 32.4-11.8 41-6zm-31 30v2c-0.93 0.27-1.86 0.54-2.81 0.81-2.95 1.1-4.34 1.72-6.19 4.19v2c-0.64 0.27-1.28 0.54-1.94 0.81-2.39 1.08-2.39 1.08-3.06 4.19h-2c-1.17 2.29-2.34 4.58-3.5 6.88-0.33 0.65-0.67 1.3-1.01 1.97-1.86 3.4-1.86 3.4-2.49 7.15h4v-2l2 1c2.72 0.09 5.41 0.13 8.12 0.11h2.54c2.79 0 5.57 0 8.35-0.01 1.92 0 3.85-0.01 5.77-0.01 5.08 0 10.2-0.01 15.2-0.02 5.18-0.01 10.4-0.02 15.5-0.02 10.2-0.01 20.3-0.03 30.5-0.05l-2-6h-2v-4h-2c-0.12-0.6-0.25-1.2-0.38-1.81-0.57-2.45-0.57-2.45-2.62-5.19h-2v-2c-2.1-2.05-2.1-2.05-4.75-4.12-0.88-0.73-1.76-1.45-2.67-2.2-2.63-2.04-2.63-2.04-6.58-1.68-0.5-1.98-0.5-1.98-1-4-6.4-1.75-6.4-1.75-13-2l3-2c-11.4-0.78-22.5 1.49-33 6zm17 97 4 1z" fill="#EB4E33"/>
<path transform="translate(1097,1310)" d="m0 0c1.94 0.35 1.94 0.35 4.06 0.44 11.8 1.19 20.9 6.62 30.9 12.6v2c1.98 0.49 1.98 0.49 4 1v2c0.69 0.17 1.39 0.33 2.11 0.5 4.26 2.21 6.43 5.6 9.2 9.44 0.55 0.73 1.1 1.46 1.67 2.21 4.02 5.45 4.02 5.45 4.02 8.85h2c0.79 1.87 1.59 3.75 2.38 5.62 0.44 1.05 0.88 2.09 1.33 3.17 3.48 8.66 4.37 16.3 4.41 25.5 0.01 0.71 0.01 1.41 0.02 2.14-0.01 3.12-0.15 5.57-1.14 8.55-3.23 2.16-4.08 2.25-7.8 2.24-0.99 0-1.98 0.01-3 0.01-1.08-0.01-2.16-0.02-3.28-0.02h-3.46c-3.78 0-7.56-0.02-11.4-0.03-2.62-0.01-5.23-0.01-7.85-0.01-6.2-0.01-12.4-0.03-18.6-0.05-7.05-0.02-14.1-0.03-21.2-0.04-14.5-0.02-29-0.06-43.5-0.1 0.32 1.14 0.32 1.14 0.66 2.3 0.27 0.99 0.55 1.99 0.84 3.01 0.28 0.99 0.56 1.97 0.84 2.99 0.66 2.7 0.66 2.7 0.66 5.7h2c0.41 0.89 0.82 1.77 1.24 2.68 4.47 8.44 11.1 14.4 19.8 18.3v2c1.09 0.2 1.09 0.2 2.21 0.4 2.57 0.55 4.95 1.29 7.44 2.14 5.39 1.64 10.4 1.92 16 1.84 1.43-0.01 1.43-0.01 2.89-0.02 8.42-0.16 16.3-1.44 24.5-3.36 1.67-0.34 3.33-0.68 5-1v-2c3.98-1.72 7.96-3.41 12-5v-2c5.06-4.03 5.06-4.03 8.19-3.94 2.06 1.07 3.36 2.13 4.81 3.94v2h2v3h2c1.29 1.61 1.29 1.61 2.62 3.75 0.67 1.04 0.67 1.04 1.36 2.11 1.02 2.14 1.02 2.14 1.02 6.14h-2c-0.27 0.64-0.54 1.28-0.81 1.94-1.19 2.06-1.19 2.06-4.19 3.06v2h-3v2c-1.41 0.84-2.83 1.67-4.25 2.5-0.79 0.46-1.58 0.93-2.39 1.41-2.36 1.09-2.36 1.09-6.36 1.09v2h-5v2c-11.5 3.05-11.5 3.05-16.7 3.62-3.15 0.01-3.15 0.01-4.31 1.38-3.47 0.26-6.96 0.19-10.4 0.19-0.96 0.01-1.92 0.02-2.91 0.03-8.33 0.02-16-1.18-23.9-3.84-3.7-1.17-6.84-1.69-10.8-1.38v-2c-0.64-0.08-1.28-0.16-1.94-0.25-4.27-1.05-8.09-2.89-12.1-4.75v-2c-0.74-0.27-1.48-0.54-2.25-0.81-2.64-1.14-4.61-2.28-6.75-4.19v-2h-2c-1.62-1.38-1.62-1.38-3-3v-2h-2c-1.29-1.46-1.29-1.46-2.62-3.38-0.45-0.62-0.9-1.25-1.36-1.89-1.02-1.73-1.02-1.73-1.02-3.73h-2c-0.49-2.47-0.49-2.47-1-5h-2v-4h-2c-4.87-13.9-7.75-26.2-7-41 0.5-0.99 0.5-0.99 1-2 0.29-1.79 0.56-3.58 0.81-5.38 1.03-6.48 2.94-12.5 5.19-18.6h2c0.12-0.74 0.25-1.48 0.38-2.25 0.57-2.55 1.36-4.48 2.62-6.75h2c0.12-0.6 0.25-1.2 0.38-1.81 0.62-2.19 0.62-2.19 2.62-5.19h2v-2h2c0.27-0.64 0.54-1.28 0.81-1.94 1.19-2.06 1.19-2.06 4.19-3.06v-2h2v-2c1.88-1.45 3.83-2.81 5.81-4.12 1.08-0.73 2.16-1.45 3.27-2.2 2.92-1.68 2.92-1.68 5.92-1.68v-2c31.7-11.5 31.7-11.5 40-6zm-31 30v2c-0.54 0.08-1.07 0.16-1.62 0.25-3.25 1.03-5.67 2.72-8.38 4.75v2h-2v2h-2v3h-2c-3.57 4.61-7 10.1-7 16 1.67 0.04 3.33 0.04 5 0l1-1c2.68-0.1 5.33-0.13 8.01-0.11h2.54c2.79 0 5.57 0 8.36 0.01 1.93 0 3.85 0.01 5.78 0.01 5.08 0 10.2 0.01 15.2 0.02 5.19 0.01 10.4 0.02 15.6 0.02 10.2 0.01 20.4 0.03 30.5 0.05-0.62-1.43-1.24-2.86-1.87-4.29-0.35-0.8-0.7-1.6-1.05-2.42-1.43-3.04-3.21-5.66-5.2-8.35-0.69-0.94-1.37-1.88-2.08-2.85-0.59-0.69-1.19-1.38-1.8-2.09h-2v-2c-3.22-2.32-3.22-2.32-7-3v-2h-4v-2l-5-2v-2c-12.9-3.61-26.9-0.91-39 4z" fill="#ED4E33"/>
<path transform="translate(566 1311)" d="m0 0c1.98 0.8 1.98 0.8 4.23 1.07 3.81 0.91 6.95 2.7 10.4 4.59 0.67 0.36 1.34 0.72 2.02 1.09 2.87 1.56 5.64 3.16 8.35 4.97v2c1.09 0.34 1.09 0.34 2.19 0.69 3.4 1.58 5.27 3.57 7.81 6.31 1.4 1.33 1.4 1.33 2.82 2.69 2.18 2.31 2.18 2.31 2.18 4.31h2v3h2c3 4.38 3 4.38 3 7h2v4h2c5.75 14.6 5.75 14.6 5 22h2c0.03 3.81 0.05 7.62 0.07 11.4 0.01 1.08 0.01 2.17 0.02 3.3 0.01 1.03 0.01 2.06 0.01 3.13 0.01 0.96 0.01 1.92 0.02 2.9-0.12 2.23-0.12 2.23-1.12 3.23-0.15 1.7-0.15 1.7-0.31 3.44-0.59 5.25-2.58 9.75-4.69 14.6-0.46 1.08-0.46 1.08-0.92 2.19-0.69 1.61-1.38 3.21-2.08 4.81h-2l-1 5h-2v3h-2c-0.3 0.62-0.61 1.24-0.93 1.87-0.69 1.38-1.38 2.75-2.07 4.13h-2v2h-2l-1 3h-2v2c-1.46 1.29-1.46 1.29-3.37 2.62-0.63 0.45-1.25 0.9-1.9 1.36-1.73 1.02-1.73 1.02-3.73 1.02v2l-5 1v2h-4v2c-19 8.13-38.7 9.69-58.4 2.83-4.39-1.78-8.57-3.71-12.6-6.14-3-2.02-3-2.02-7-1.69v-2h-3c-0.71-1.21-0.71-1.21-1.43-2.44-1.25-2.71-1.25-2.71-3.44-3.06-0.7-0.17-1.4-0.33-2.13-0.5-3.37-3.04-6.32-6.34-9-10v-2h-2c-2.04-2.91-3-4.4-3-8h-2c-0.84-1.72-1.67-3.46-2.5-5.19-0.46-0.96-0.92-1.92-1.4-2.92-1.09-2.88-1.32-4.84-1.1-7.89h-2c-3.92-17.6-3.3-35.5 4-52 0.59-1.38 1.17-2.75 1.75-4.13 0.42-0.95 0.83-1.89 1.25-2.87h2c0.09-0.54 0.17-1.07 0.25-1.63 1.03-3.24 2.72-5.66 4.75-8.37h2c0.23-0.56 0.46-1.11 0.69-1.69 1.68-2.96 3.86-4.97 6.31-7.31 0.56-0.6 1.12-1.2 1.69-1.81 1.31-1.19 1.31-1.19 3.31-1.19v-2h3v-2c7.68-5.61 15.9-8.52 25-11 0.99-0.34 1.97-0.68 2.98-1.03 12.1-3.89 26.1-4.42 38.1 0.31zm-11-1.28 4 1zm-36 32v2c-0.78 0.31-1.56 0.62-2.37 0.94-2.55 0.99-2.55 0.99-4.63 2.06v2h-2v2c-0.99 0.33-1.98 0.66-3 1v2h-2c-3.19 4.06-3.19 4.06-4 9h-2l-1 7h-2c-1.69 5.92-2.19 11.4-2.18 17.5v2.18c-0.27 3.45-0.27 3.45 1.18 6.32 0.37 2.33 0.71 4.66 1 7h2l1 7h2v4h2v3h2c0.27 0.64 0.54 1.28 0.82 1.94 1.07 2.39 1.07 2.39 4.18 3.06v2h2c0.23 0.6 0.46 1.19 0.69 1.81 1.68 2.8 3.41 3.77 6.31 5.19h3v2c1.16 0.47 2.31 0.95 3.5 1.44 0.65 0.26 1.3 0.53 1.97 0.8 13.6 4.04 29.6 2.97 42.5-2.24v-2c0.54-0.08 1.08-0.17 1.63-0.25 3.25-1.03 5.66-2.72 8.37-4.75v-2c0.88-0.36 0.88-0.36 1.77-0.72 2.7-1.54 4.1-3.26 5.98-5.72 0.62-0.78 1.23-1.56 1.86-2.37 1.66-2.18 1.66-2.18 1.39-5.19h2c0.75-2.19 1.49-4.39 2.2-6.59 0.63-1.88 1.3-3.74 1.99-5.6 2.56-12 0.47-23.6-4.19-34.8h-2c-0.46-1.18-0.46-1.18-0.93-2.38-0.99-2.54-0.99-2.54-2.07-4.62h-2c-0.99-2.48-0.99-2.48-2-5h-2v-2l-5-2v-2c-1.97-1.36-3.98-2.7-6-4-0.49-0.54-0.99-1.07-1.5-1.63-6.62-6.06-19-4.8-27.4-4.51-8.23 0.54-15.8 3.5-23.1 7.14z" fill="#EB4E33"/>
<path transform="translate(756,728)" d="m0 0c4.1 1.44 7.3 3.44 10.8 6 1.47 1.05 1.47 1.05 2.96 2.12 0.74 0.62 1.47 1.24 2.23 1.88v2c0.6 0.27 1.19 0.54 1.8 0.82 3.54 1.9 6.08 4.72 8.89 7.56 0.62 0.62 1.24 1.24 1.87 1.88 5.41 5.53 10.1 11.4 14.4 17.7 0.67 0.97 1.34 1.93 2.02 2.93 7.6 11.8 12.4 24.6 15.4 38.3 0.58 2.82 0.58 2.82 1.61 5.75 0.09 1.36 0.13 2.72 0.13 4.09 0 0.82 0.01 1.63 0.01 2.48 0 0.87-0.01 1.75-0.01 2.66 0 0.9 0 1.8 0.01 2.73 0 1.91-0.01 3.82-0.01 5.73 0 2.93 0 5.86 0.01 8.79 0 1.86-0.01 3.71-0.01 5.56 0 0.88 0.01 1.76 0.01 2.67-0.03 6.18-0.03 6.18-1.14 7.29-0.21 1.66-0.37 3.33-0.5 5-0.39 4.89-0.39 4.89-1.5 6-0.3 1.41-0.57 2.83-0.81 4.25-3.36 17.3-10.2 33.1-20.5 47.4-1.72 2.38-1.72 2.38-3.24 5.16-0.46 0.72-0.93 1.45-1.41 2.2h-2c-0.27 0.58-0.53 1.16-0.8 1.76-3.73 6.98-10.2 12.2-16.2 17.2-0.94 0.82-1.88 1.63-2.85 2.47-0.98 0.84-1.95 1.67-2.96 2.53-1.37 1.18-1.37 1.18-2.77 2.38-1.2 0.8-1.2 0.8-2.42 1.62-0.99-0.33-1.98-0.66-3-1 4.75-4 4.75-4 7-4v-2c3.46-3 3.46-3 6-3v-2h2v-2h2v-2c1.38-1.62 1.38-1.62 3-3h2v-2h2l2-5h2c0.23-0.52 0.45-1.03 0.69-1.56 1.5-2.79 3.29-5.23 5.19-7.76 1.31-1.8 1.31-1.8 2.12-4.68h2c0.27-0.68 0.54-1.36 0.81-2.06 1.35-3.34 2.77-6.64 4.19-9.94h2c0.12-0.71 0.23-1.42 0.35-2.15 0.69-3.04 1.76-5.62 3.03-8.47 3.36-7.91 5.67-15.8 6.62-24.4h2c-0.01-0.78-0.02-1.56-0.04-2.37 0-1.01-0.01-2.02-0.02-3.07-0.01-1.01-0.03-2.02-0.04-3.06 0.1-2.5 0.1-2.5 1.1-3.5 0.13-2.74 0.19-5.46 0.2-8.21 0.01-1.25 0.01-1.25 0.02-2.53 0.01-1.78 0.02-3.56 0.02-5.34 0.01-2.68 0.04-5.37 0.07-8.05 0.06-9.4-0.36-17.8-3.31-26.9-0.31-1.13-0.63-2.27-0.95-3.44-0.5-1.73-1-3.46-1.5-5.18-0.55-2.38-0.55-2.38-0.55-6.38h-2c-0.51-1.27-1-2.54-1.5-3.81-0.28-0.71-0.56-1.42-0.84-2.15-0.66-2.04-0.66-2.04-0.66-5.04h-2c-1.46-2.65-2-3.89-2-7h-2c-3-4.38-3-4.38-3-7h-2v-3h-2c-0.5-1.98-0.5-1.98-1-4h-2v-2h-2c-1.73-1.68-1.73-1.68-3.62-3.88-0.64-0.71-1.27-1.43-1.92-2.17-1.46-1.95-1.46-1.95-1.46-3.95l-5-2v-2h-2c-1.62-1.38-1.62-1.38-3-3v-2h-2v-2c-0.78-0.31-1.57-0.62-2.38-0.94-2.62-1.06-2.62-1.06-4.62-2.06v-2c-0.99-0.33-1.98-0.66-3-1v-1z" fill="#000002"/>
<path transform="translate(1057,1316)" d="m0 0 4 1c-6.75 4-6.75 4-9 4l-1 3c-1.33 0.67-2.67 1.33-4 2-4.56 4.21-8.56 8.84-12 14h-2c-0.27 0.72-0.54 1.44-0.81 2.19-1.19 2.81-1.19 2.81-2.57 5.04-1.87 3.19-3.31 6.48-4.68 9.89-0.27 0.66-0.53 1.31-0.8 1.99-1.91 4.9-3.1 9.69-3.82 14.9-0.32 1.98-0.32 1.98-1.32 2.98-0.61 10.8-0.06 20.6 3 31 0.25 0.94 0.5 1.88 0.76 2.84 1.26 4.55 2.72 8.15 5.24 12.2 0.76 1.29 0.76 1.29 1.54 2.61 3.46 5.68 7.04 10.3 12 14.8 1.5 1.56 1.5 1.56 1.5 3.56 0.56 0.26 1.11 0.51 1.69 0.78 3.54 1.87 6.65 4.3 9.87 6.66 2.24 1.43 3.85 2.12 6.44 2.56v2c0.96 0.19 0.96 0.19 1.94 0.38 0.68 0.2 1.36 0.41 2.06 0.62l1 2h-3v-2c-0.64-0.08-1.28-0.16-1.94-0.25-4.27-1.05-8.09-2.89-12.1-4.75v-2c-0.74-0.27-1.48-0.54-2.25-0.81-2.64-1.14-4.61-2.28-6.75-4.19v-2h-2c-1.62-1.38-1.62-1.38-3-3v-2h-2c-1.29-1.46-1.29-1.46-2.62-3.38-0.45-0.62-0.9-1.25-1.36-1.89-1.02-1.73-1.02-1.73-1.02-3.73h-2c-0.49-2.47-0.49-2.47-1-5h-2v-4h-2c-4.87-13.9-7.75-26.2-7-41l1-2c0.29-1.79 0.56-3.58 0.81-5.38 1.03-6.48 2.94-12.5 5.19-18.6h2c0.12-0.74 0.25-1.48 0.38-2.25 0.57-2.55 1.36-4.48 2.62-6.75h2c0.12-0.6 0.25-1.2 0.38-1.81 0.62-2.19 0.62-2.19 2.62-5.19h2v-2h2c0.27-0.64 0.54-1.28 0.81-1.94 1.19-2.06 1.19-2.06 4.19-3.06v-2h2v-2c1.88-1.45 3.83-2.81 5.81-4.12 1.08-0.73 2.16-1.45 3.27-2.2 2.92-1.68 2.92-1.68 5.92-1.68v-2z" fill="#000002"/>
<path transform="translate(721,125)" d="m0 0c4.38 1.37 7.51 3.78 11.1 6.55 1.99 1.56 1.99 1.56 4.61 3.01 2.87 1.79 4.95 4.02 7.31 6.44 0.93 0.72 1.86 1.44 2.81 2.19 0.72 0.6 1.45 1.19 2.19 1.81v2c0.6 0.25 1.2 0.5 1.81 0.75 2.51 1.43 3.67 2.82 5.19 5.25v2c0.64 0.27 1.28 0.54 1.94 0.81 2.06 1.19 2.06 1.19 3.06 4.19h2c1.34 1.66 2.59 3.38 3.81 5.12 3.3 4.67 3.3 4.67 6.94 9.07 2.22 2.78 3.58 5.34 5.08 8.54 1.41 2.73 3.05 5.26 4.73 7.83 2.62 4.05 4.63 7.96 6.44 12.4 0.91 1.73 1.83 3.46 2.75 5.19 6.61 13.1 10.9 27.6 14.2 41.8 0.17 0.71 0.34 1.43 0.52 2.17 3.7 15.6 6.15 31.7 5.48 47.8h-3c-0.09-0.93-0.17-1.86-0.26-2.81-0.32-3.44-0.64-6.88-0.97-10.3-0.14-1.49-0.28-2.98-0.41-4.47-0.2-2.14-0.4-4.28-0.61-6.42-0.12-1.29-0.24-2.58-0.36-3.91-0.21-2.98-0.21-2.98-1.39-5.07-0.07-1.54-0.08-3.08-0.06-4.62 0.01-0.82 0.02-1.64 0.02-2.48 0.02-0.63 0.03-1.25 0.04-1.9h-2c-0.1-0.7-0.2-1.41-0.3-2.13-1.66-11-4.44-21.6-8.97-31.8-0.73-2.09-0.73-2.09-0.73-6.09h-2c-0.65-1.73-1.3-3.46-1.94-5.19-0.36-0.96-0.72-1.92-1.09-2.92-0.88-2.63-1.5-5.16-1.97-7.89h-2c-0.84-1.62-1.67-3.25-2.5-4.88-0.46-0.9-0.93-1.8-1.41-2.74-1.09-2.38-1.09-2.38-1.09-4.38h-2l-3-9h-2v-3h-2c-3-4.38-3-4.38-3-7h-2c-1.29-1.46-1.29-1.46-2.62-3.38-0.45-0.62-0.9-1.25-1.36-1.89-1.02-1.73-1.02-1.73-1.02-3.73h-2l-2-5h-2c-1.69-1.64-1.69-1.64-3.56-3.81-0.62-0.71-1.24-1.42-1.88-2.15-1.56-2.04-1.56-2.04-2.56-5.04-1.31-0.71-2.65-1.37-4-2-1.78-1.29-3.53-2.63-5.25-4-0.89-0.7-1.78-1.4-2.7-2.12-0.68-0.62-1.35-1.24-2.05-1.88v-2h-2v-2c-0.78-0.31-1.57-0.62-2.38-0.94-2.62-1.06-2.62-1.06-4.62-2.06v-2h-3v-2z" fill="#000002"/>
<path transform="translate(860,1330)" d="m0 0h2c-1.55 3.4-3.56 6.21-5.81 9.19-13.8 18.9-17.5 39.8-14.8 62.9 1.93 10.7 6.95 21 13.4 29.8 2.24 3.15 2.24 3.15 2.24 5.15 1.49 0.49 1.49 0.49 3 1 1.26 1.46 2.52 2.92 3.73 4.43 1.62 2 3.42 3.79 5.27 5.57-4.75-1.88-4.75-1.88-7-3v-2h-2v-2h-2c-1.62-1.38-1.62-1.38-3-3v-2h-2v-3h-2c-1.29-1.64-1.29-1.64-2.62-3.81-0.45-0.71-0.9-1.42-1.36-2.15-1.02-2.04-1.02-2.04-1.02-5.04h-2l-1-7h-2v-5h-2c-1.97-7.87-2.3-15.4-2.25-23.5-0.01-1.16-0.02-2.32-0.02-3.51 0.01-6.9 0.59-13.3 2.27-20h2v-5h2l1-7h2v-4h2v-3h2c0.31-0.78 0.62-1.57 0.94-2.38 1.06-2.62 1.06-2.62 2.06-4.62h2v-2h2l1-3h2v-2z" fill="#000002"/>
<path transform="translate(752,1340)" d="m0 0h4v2c1.05 0.37 1.05 0.37 2.12 0.75 3.28 1.42 6.02 3.12 8.88 5.25v2c0.62 0.25 1.24 0.49 1.88 0.75 2.47 1.46 3.07 2.63 4.12 5.25h2c7.32 9.46 10.3 19.9 10.4 31.7 0.01 0.78 0.02 1.56 0.03 2.37-0.18 12.1-6.04 25.8-14.4 34.5-9.31 8.44-9.31 8.44-14.1 8.44v-2c4.38-3 4.38-3 7-3v-2h2v-2h2v-2l4-4c0.5-1.48 0.5-1.48 1-3h2c0.12-0.72 0.25-1.44 0.38-2.19 0.61-2.77 1.5-5.21 2.62-7.81h2c-0.02-1.11-0.04-2.23-0.06-3.38 0.06-3.62 0.06-3.62 1.06-5.62 0.77-10.4-0.31-19.1-4-29-0.67-2-1.34-4-2-6h-2v-3h-2l-1-4h-2v-2h-2v-2c-0.52-0.23-1.03-0.45-1.56-0.69-2.79-1.5-5.23-3.29-7.76-5.19-1.8-1.31-1.8-1.31-4.68-2.12v-2z" fill="#000002"/>
<path transform="translate(532,537)" d="m0 0h2c-0.93 5.56-2.96 10.7-4.84 16-2.33 7.3-2.36 15-2.41 22.6-0.02 0.81-0.04 1.62-0.06 2.45-0.04 5.47 0.92 9.02 3.31 13.9 0.45 1.58 0.87 3.16 1.25 4.75 2.17 7.51 6.65 13.9 11.7 19.8 2.06 2.44 2.06 2.44 2.06 4.44 0.64 0.27 1.28 0.54 1.94 0.81 2.06 1.19 2.06 1.19 3.06 4.19l4 2 1 3h-2v-2h-2v-2c-0.64-0.27-1.28-0.54-1.94-0.81-2.06-1.19-2.06-1.19-3.06-4.19h-2v-2h-2c-1.62-1.31-1.62-1.31-3-3v-3h-2c-0.84-1.46-1.67-2.91-2.5-4.38-0.46-0.81-0.93-1.62-1.41-2.46-1.09-2.16-1.09-2.16-1.09-4.16h-2c-0.28-0.99-0.55-1.97-0.84-2.99-0.37-1.3-0.73-2.59-1.1-3.89-0.18-0.65-0.36-1.3-0.55-1.97-1.03-3.66-1.03-3.66-2.51-7.15-1.48-16.7-0.38-30.2 5-46h2v-4z" fill="#000002"/>
<path transform="translate(475,1352)" d="m0 0h2c-0.18 0.53-0.36 1.07-0.55 1.62-7.61 22.6-10.3 44.4 0.6 66.5 3.75 7.11 8.11 13.7 13.7 19.4 1.21 1.42 1.21 1.42 1.21 3.42h-2c-1.73-1.9-1.73-1.9-3.62-4.38-0.64-0.81-1.27-1.62-1.92-2.46-1.46-2.16-1.46-2.16-1.46-4.16h-2c-2.04-2.91-3-4.4-3-8h-2c-0.85-1.72-1.68-3.45-2.5-5.19-0.46-0.96-0.93-1.92-1.41-2.92-1.09-2.88-1.31-4.84-1.09-7.89h-2c-4.31-19.3-3-38.4 6-56z" fill="#000002"/>
<path transform="translate(1105,1336)" d="m0 0 1 2c1.92 0.58 1.92 0.58 4.19 0.94 11.6 2.42 18.4 9.95 25 19.3 4.76 7.43 4.76 7.43 4.76 10.8-2.38 0.12-2.38 0.12-5 0-2-2-2-2-3.19-5.06-1.72-4.26-4.47-7.51-7.38-11-1.43-1.92-1.43-1.92-1.43-3.92h-2v-2c-0.78-0.31-1.57-0.62-2.38-0.94-2.62-1.06-2.62-1.06-4.62-2.06v-2h-4v-2c-0.76-0.12-1.53-0.25-2.31-0.38-2.69-0.62-2.69-0.62-5.69-2.62 0.99-0.33 1.98-0.66 3-1z" fill="#000002"/>
<path transform="translate(778,477)" d="m0 0c3.37 0.55 5.08 1.05 8 3v2c0.76 0.27 1.53 0.54 2.31 0.81 4.07 1.8 4.07 1.8 5.69 4.19 0.75 5.76-1.41 9.29-4.25 14.1-0.4 0.7-0.79 1.39-1.2 2.11-2.25 3.88-4.72 7.34-7.55 10.8-0.8 1.41-1.55 2.85-2.25 4.31-0.34 0.7-0.67 1.4-1.02 2.12-0.36 0.78-0.36 0.78-0.73 1.57h-2l-2 4c-0.99-0.33-1.98-0.66-3-1l1-2h2c0.27-0.7 0.54-1.4 0.81-2.12 1.26-3.04 2.69-5.95 4.19-8.88h2v-3h2c1.08-2.65 2.09-5.28 3-8h2c0.12-0.56 0.25-1.11 0.38-1.69 0.62-2.31 0.62-2.31 1.74-4.56 1.24-3.89 0.56-6.75-0.12-10.8l-4-1v-2h-3v-2l-4-2z" fill="#000002"/>
<path transform="translate(584,1351)" d="m0 0c1.71 1.28 3.37 2.62 5 4v2c0.99 0.33 1.98 0.66 3 1 5.94 8.86 7.19 18.8 7.25 29.2 0.02 0.89 0.04 1.79 0.06 2.71 0.05 8.66-1.77 16.3-6.37 23.7-0.76 1.26-0.76 1.26-1.54 2.54-0.46 0.61-0.92 1.22-1.4 1.84h-2c-0.23 0.74-0.45 1.48-0.69 2.25-1.55 3.26-3.4 4.68-6.31 6.75l-2-1c1.05-0.99 1.05-0.99 2.12-2 4.04-4.04 8.06-8.54 9.88-14h2c0.12-0.57 0.24-1.14 0.37-1.72 0.16-0.77 0.33-1.55 0.51-2.34 0.18-0.84 0.36-1.67 0.54-2.53 0.58-2.41 0.58-2.41 1.7-5.6 2.36-10.3 0.75-19.8-2.12-29.8-0.35-1.66-0.69-3.33-1-5h-2c-3-4.38-3-4.38-3-7h-2l-2-5z" fill="#000002"/>
<path transform="translate(935,1339)" d="m0 0v2c0.66 0.04 1.32 0.08 2 0.12 4.33 1.27 7.72 3.81 11 6.88v2c0.56 0.21 1.11 0.41 1.69 0.62 6.09 3.63 9 9.92 11.3 16.4v2l-5-1c-0.5-2.47-0.5-2.47-1-5h-2v-4h-2c-3-4.38-3-4.38-3-7h-2v-2c-0.99-0.33-1.98-0.66-3-1v-2c-3.59-1.87-7.28-3.43-11-5v-2c-0.99-0.33-1.98-0.66-3-1 2.49-1.25 3.41-0.78 6 0z" fill="#000002"/>
<path transform="translate(1146 1420)" d="m0 0c0.54 0.25 1.07 0.49 1.62 0.75-6.93 7.38-16.9 13.2-27 14 0.67-0.66 1.32-1.32 2-2h3v-2c3.99-1.72 7.97-3.41 12-5v-2c5.15-4.09 5.15-4.09 8.38-3.75z" fill="#000002"/>
<path transform="translate(970,1421)" d="m0 0c-12.3 10-12.3 10-17 10v-2c4.38-3 4.38-3 7-3v-2c6.62-4.12 6.62-4.12 10-3z" fill="#000002"/>
<path transform="translate(497,1325)" d="m0 0h2c-1.13 3.39-2.12 4.2-4.81 6.44-2.86 2.42-5.6 4.86-8.19 7.56 0-3 0-3 2.25-5.44 0.91-0.84 1.81-1.69 2.75-2.56 0.72-0.76 1.44-1.53 2.19-2.31 1.81-1.69 1.81-1.69 3.81-1.69v-2z" fill="#010102"/>
<path transform="translate(682,1448)" d="m0 0c1.94 0.31 1.94 0.31 4 1l1 3c1.65 0.7 3.32 1.36 5 2 1.81 1.62 1.81 1.62 3 3h-4v-2c-1.18-0.46-1.18-0.46-2.38-0.94-2.62-1.06-2.62-1.06-4.62-2.06v-2h-2v-2z" fill="#010102"/>
<path transform="translate(741,718)" d="m0 0c5.15 1.42 9.83 3.64 14 7l1 3-4-1v-2c-0.7-0.25-1.4-0.5-2.12-0.75-3.26-1.42-6-3.18-8.88-5.25v-1z" fill="#010102"/>
<path transform="translate(682,439)" d="m0 0 2 2-4-1 2-1z" fill="#030303"/>
<path transform="translate(668,437)" d="m0 0 4 1c-0.99 0.5-0.99 0.5-2 1l-2-2z" fill="#040404"/>
<path transform="translate(904,1462)" d="m0 0c1.49 0.99 1.49 0.99 3 2h-3v-2z" fill="#040404"/>
<path transform="translate(1073,1461)" d="m0 0 4 1z" fill="#000002"/>
<path transform="translate(507,1453)" d="m0 0c1.49 0.99 1.49 0.99 3 2h-3v-2z" fill="#010102"/>
<path transform="translate(1097,1336)" d="m0 0 4 1z" fill="#000002"/>
<path transform="translate(1098,1309)" d="m0 0 4 1z" fill="#EE4F34"/>
<path transform="translate(920,1309)" d="m0 0 4 1z" fill="#EE4F34"/>
<path transform="translate(698,695)" d="m0 0c1.49 0.99 1.49 0.99 3 2h-3v-2z" fill="#010102"/>
<path transform="translate(577,646)" d="m0 0c1.49 0.99 1.49 0.99 3 2h-3v-2z" fill="#020203"/>
<path transform="translate(731,454)" d="m0 0 4 1z" fill="#010102"/>
<path transform="translate(700,113)" d="m0 0c1.49 0.99 1.49 0.99 3 2h-3v-2z" fill="#010102"/>
<path transform="translate(682,107)" d="m0 0 4 1z" fill="#010102"/>
<path transform="translate(677,105)" d="m0 0 4 1z" fill="#010102"/>
<path transform="translate(652,100)" d="m0 0 4 1z" fill="#040404"/>
<path transform="translate(703,1461)" d="m0 0c3 1 3 1 3 1z" fill="#010102"/>
<path transform="translate(565,1339)" d="m0 0c3 1 3 1 3 1z" fill="#010102"/>
<path transform="translate(211,1245)" d="m0 0c3 1 3 1 3 1z" fill="#040404"/>
<path transform="translate(531,907)" d="m0 0c3 1 3 1 3 1z" fill="#010102"/>
<path transform="translate(687,691)" d="m0 0c3 1 3 1 3 1z" fill="#010102"/>
<path transform="translate(678,687)" d="m0 0c3 1 3 1 3 1z" fill="#000002"/>
<path transform="translate(652,676)" d="m0 0 2 2h-2v-2z" fill="#040404"/>
<path transform="translate(607,661)" d="m0 0c3 1 3 1 3 1z" fill="#010102"/>
<path transform="translate(738,457)" d="m0 0c3 1 3 1 3 1z" fill="#010102"/>
<path transform="translate(725,452)" d="m0 0c3 1 3 1 3 1z" fill="#010102"/>
<path transform="translate(710,447)" d="m0 0c3 1 3 1 3 1z" fill="#000002"/>
<path transform="translate(655,1546)" d="m0 0 2 1z" fill="#040404"/>
<path transform="translate(719,1465)" d="m0 0 2 1z" fill="#020203"/>
<path transform="translate(534,1463)" d="m0 0 2 1z" fill="#020203"/>
<path transform="translate(894,1461)" d="m0 0 2 1z" fill="#000002"/>
<path transform="translate(1071,1460)" d="m0 0 2 1z" fill="#000002"/>
<path transform="translate(511,1456)" d="m0 0 2 1z" fill="#040404"/>
<path transform="translate(504,1452)" d="m0 0 2 1z" fill="#020203"/>
<path transform="translate(747,1339)" d="m0 0 2 1z" fill="#000002"/>
<path transform="translate(559,1336)" d="m0 0 2 1z" fill="#040404"/>
<path transform="translate(555,1336)" d="m0 0 2 1z" fill="#000002"/>
<path transform="translate(241,1259)" d="m0 0 2 1z" fill="#020203"/>
<path transform="translate(605,932)" d="m0 0 2 1z" fill="#040404"/>
<path transform="translate(583,928)" d="m0 0 2 1z" fill="#040404"/>
<path transform="translate(572,924)" d="m0 0 2 1z" fill="#040404"/>
<path transform="translate(561,921)" d="m0 0 2 1z" fill="#000002"/>
<path transform="translate(541,912)" d="m0 0 2 1z" fill="#000002"/>
<path transform="translate(523,902)" d="m0 0 2 1z" fill="#020203"/>
<path transform="translate(513,896)" d="m0 0 2 1z" fill="#020203"/>
<path transform="translate(485,876)" d="m0 0 2 1z" fill="#020203"/>
<path transform="translate(733,713)" d="m0 0 2 1z" fill="#000002"/>
<path transform="translate(722,707)" d="m0 0 2 1z" fill="#020203"/>
<path transform="translate(661,680)" d="m0 0 2 1z" fill="#040404"/>
<path transform="translate(658,679)" d="m0 0 2 1z" fill="#000002"/>
<path transform="translate(638,672)" d="m0 0 2 1z" fill="#000002"/>
<path transform="translate(631,670)" d="m0 0 2 1z" fill="#000002"/>
<path transform="translate(595,656)" d="m0 0 2 1z" fill="#000002"/>
<path transform="translate(588,652)" d="m0 0 2 1z" fill="#000002"/>
<path transform="translate(585,651)" d="m0 0 2 1z" fill="#020203"/>
<path transform="translate(695,493)" d="m0 0 2 1z" fill="#EE4F34"/>
<path transform="translate(768,471)" d="m0 0 2 1z" fill="#020203"/>
<path transform="translate(750,462)" d="m0 0 2 1z" fill="#000002"/>
<path transform="translate(715,448)" d="m0 0 2 1z" fill="#020203"/>
<path transform="translate(703,445)" d="m0 0 2 1z" fill="#020203"/>
<path transform="translate(696,443)" d="m0 0 2 1z" fill="#000002"/>
<path transform="translate(692,110)" d="m0 0 2 1z" fill="#000002"/>
<path transform="translate(689,109)" d="m0 0 2 1z" fill="#000002"/>
<path transform="translate(649,100)" d="m0 0 2 1z" fill="#020203"/>
<path transform="translate(680,40)" d="m0 0 2 1z" fill="#EE4F34"/>
</svg>
